<svg width="40" height="40" viewBox="0 0 40 40" fill="none" xmlns="http://www.w3.org/2000/svg">
<path d="M20.5 3C10.8641 3 3 10.8647 3 20.5C3 30.1359 10.8647 38 20.5 38C30.1359 38 38 30.1353 38 20.5C38 10.8641 30.1353 3 20.5 3ZM20.5 5.05078C24.3912 5.05078 27.9504 6.49733 30.6696 8.8802L27.0255 12.5243C26.6253 12.9244 26.6251 13.574 27.0255 13.9744L28.4757 15.4245C28.8755 15.8244 28.8755 16.4749 28.4757 16.8746C28.0759 17.2744 27.4255 17.2745 27.0255 16.8746L25.5754 15.4245C25.175 15.0241 24.5258 15.0241 24.1253 15.4245L20.5 19.0499L17.5998 16.1497L18.3248 15.4246C19.5242 14.2252 19.5242 12.2736 18.3248 11.0743C17.1255 9.8749 15.1738 9.87483 13.9745 11.0743L13.2494 11.7993L10.3304 8.88027C13.0496 6.4974 16.6088 5.05078 20.5 5.05078ZM5.05078 20.5C5.05078 16.6088 6.4974 13.0496 8.88027 10.3304L12.5244 13.9745C12.9248 14.3749 13.574 14.3749 13.9745 13.9745L15.4246 12.5244C15.8244 12.1245 16.4749 12.1245 16.8747 12.5244C17.2745 12.9242 17.2745 13.5747 16.8747 13.9745L15.4246 15.4246C15.0243 15.8248 15.0242 16.4743 15.4246 16.8747L19.0499 20.5L16.1496 23.4003L15.4246 22.6753C14.2224 21.473 12.2765 21.4729 11.0743 22.6753C9.87203 23.8775 9.87189 25.8232 11.0743 27.0256L11.7961 27.7474L8.86469 30.6521C6.49098 27.935 5.05078 24.3827 5.05078 20.5ZM20.5 35.9492C16.6004 35.9492 13.0343 34.4962 10.3128 32.1041L13.9712 28.479C14.3746 28.0793 14.3762 27.4272 13.9746 27.0256L12.5244 25.5755C12.1247 25.1756 12.1247 24.5251 12.5244 24.1254C12.9252 23.7246 13.5738 23.7246 13.9745 24.1254L15.4246 25.5755C15.8248 25.9757 16.4744 25.9759 16.8747 25.5755L20.5 21.9501L23.4003 24.8503L22.6753 25.5754C21.4731 26.7775 21.4729 28.7234 22.6753 29.9257C23.8773 31.1278 25.8233 31.1281 27.0256 29.9257L27.7476 29.2038L30.6531 32.1344C27.9359 34.5087 24.3832 35.9492 20.5 35.9492ZM32.1051 30.6862L28.4788 27.0287C28.0789 26.6252 27.4271 26.624 27.0256 27.0255L25.5754 28.4756C25.1756 28.8754 24.5251 28.8754 24.1253 28.4756C23.7245 28.0748 23.7245 27.4264 24.1253 27.0255L25.5754 25.5754C25.9759 25.175 25.9759 24.5258 25.5754 24.1253L21.9501 20.5L24.8503 17.5998L25.5753 18.3248C26.7746 19.5242 28.7263 19.5242 29.9257 18.3248C30.5068 17.7438 30.8268 16.9713 30.8268 16.1497C30.8268 15.328 30.5068 14.5555 29.9257 13.9745L29.2006 13.2495L32.1197 10.3304C34.5026 13.0496 35.9492 16.6088 35.9492 20.5C35.9492 24.3991 34.4967 27.9648 32.1051 30.6862Z" fill="#3B8BEA" style="fill:#3B8BEA;fill:color(display-p3 0.2314 0.5451 0.9176);fill-opacity:1;"/>
</svg>
