<svg width="40" height="40" viewBox="0 0 40 40" fill="none" xmlns="http://www.w3.org/2000/svg">
<path fill-rule="evenodd" clip-rule="evenodd" d="M13.3155 5.83398C12.4888 5.83398 11.7473 6.3638 11.4496 7.16718L9.02167 13.7201C9.50958 13.5833 10.0226 13.5103 10.552 13.5103H30.8093C31.3387 13.5103 31.8518 13.5833 32.3397 13.7201L29.9117 7.16717C29.6141 6.3638 28.8725 5.83398 28.0459 5.83398H13.3155ZM36.211 17.2255L32.1507 6.267C31.4958 4.49958 29.8646 3.33398 28.0459 3.33398H13.3155C11.4968 3.33398 9.8655 4.49958 9.21063 6.267L5.15052 17.225C4.84807 17.9621 4.68066 18.7738 4.68066 19.6263C4.68066 23.004 7.30935 25.7423 10.552 25.7423H19.4816L19.4817 28.2728C18.1715 28.6878 17.1377 29.7645 16.7393 31.1295H8.14004C7.4773 31.1295 6.94004 31.6891 6.94004 32.3795C6.94004 33.0698 7.4773 33.6295 8.14004 33.6295H16.7393C17.2531 35.3899 18.8238 36.6709 20.6819 36.6709C22.5398 36.6709 24.1105 35.3899 24.6243 33.6295H33.2221C33.8848 33.6295 34.4221 33.0698 34.4221 32.3795C34.4221 31.6891 33.8848 31.1295 33.2221 31.1295H24.6243C24.2259 29.7645 23.1921 28.6876 21.8817 28.2728L21.8816 25.7423H30.8093C34.052 25.7423 36.6806 23.004 36.6806 19.6263C36.6806 18.774 36.5134 17.9625 36.211 17.2255ZM33.9944 18.1858L34.008 18.2228C34.1829 18.6545 34.2806 19.1283 34.2806 19.6263C34.2806 21.6233 32.7265 23.2423 30.8093 23.2423H10.552C8.63484 23.2423 7.08066 21.6233 7.08066 19.6263C7.08066 19.1283 7.17727 18.6539 7.35202 18.2223L7.36722 18.1853C7.90169 16.9053 9.1265 16.0103 10.552 16.0103H30.8093C32.235 16.0103 33.46 16.9055 33.9944 18.1858ZM8.89239 19.6263C8.89239 18.936 9.42964 18.3763 10.0924 18.3763H15.2697C15.9325 18.3763 16.4697 18.936 16.4697 19.6263C16.4697 20.3166 15.9325 20.8763 15.2697 20.8763H10.0924C9.42964 20.8763 8.89239 20.3166 8.89239 19.6263ZM18.3182 19.6263C18.3182 18.936 18.8555 18.3763 19.5182 18.3763H20.1323C20.795 18.3763 21.3323 18.936 21.3323 19.6263C21.3323 20.3166 20.795 20.8763 20.1323 20.8763H19.5182C18.8555 20.8763 18.3182 20.3166 18.3182 19.6263ZM20.6819 30.5878C19.732 30.5878 18.9619 31.39 18.9619 32.3795C18.9619 33.369 19.732 34.1709 20.6819 34.1709C21.6317 34.1709 22.4017 33.369 22.4017 32.3795C22.4017 31.39 21.6317 30.5878 20.6819 30.5878Z" fill="#3B8BEA" style="fill:#3B8BEA;fill:color(display-p3 0.2314 0.5451 0.9176);fill-opacity:1;"/>
</svg>
