<svg width="40" height="40" viewBox="0 0 40 40" fill="none" xmlns="http://www.w3.org/2000/svg">
<path d="M18.7501 28.3337C18.7501 28.6652 18.6184 28.9832 18.3839 29.2176C18.1495 29.452 17.8316 29.5837 17.5001 29.5837H8.3334C7.48896 29.6816 6.63333 29.5873 5.8305 29.3078C5.02767 29.0283 4.29843 28.5709 3.69733 27.9698C3.09623 27.3687 2.63883 26.6394 2.35934 25.8366C2.07986 25.0338 1.98552 24.1782 2.08339 23.3337V10.0004C1.98552 9.15595 2.07986 8.30032 2.35934 7.49749C2.63883 6.69466 3.09623 5.96542 3.69733 5.36432C4.29843 4.76322 5.02767 4.30582 5.8305 4.02633C6.63333 3.74685 7.48896 3.65251 8.3334 3.75039H28.3334C29.1778 3.65251 30.0335 3.74685 30.8363 4.02633C31.6391 4.30582 32.3684 4.76322 32.9695 5.36432C33.5706 5.96542 34.028 6.69466 34.3075 7.49749C34.5869 8.30032 34.6813 9.15595 34.5834 10.0004C34.5834 10.3319 34.4517 10.6498 34.2173 10.8843C33.9829 11.1187 33.6649 11.2504 33.3334 11.2504C33.0019 11.2504 32.6839 11.1187 32.4495 10.8843C32.2151 10.6498 32.0834 10.3319 32.0834 10.0004C32.0834 7.37205 30.9617 6.25039 28.3334 6.25039H8.3334C5.70506 6.25039 4.58339 7.37205 4.58339 10.0004V23.3337C4.58339 25.9621 5.70506 27.0837 8.3334 27.0837H17.5001C17.8316 27.0837 18.1495 27.2154 18.3839 27.4498C18.6184 27.6843 18.7501 28.0022 18.7501 28.3337ZM20.0001 12.0837H10.0001C9.66854 12.0837 9.3506 12.2154 9.11618 12.4498C8.88176 12.6843 8.75006 13.0022 8.75006 13.3337C8.75006 13.6652 8.88176 13.9832 9.11618 14.2176C9.3506 14.452 9.66854 14.5837 10.0001 14.5837H20.0001C20.3316 14.5837 20.6495 14.452 20.8839 14.2176C21.1184 13.9832 21.2501 13.6652 21.2501 13.3337C21.2501 13.0022 21.1184 12.6843 20.8839 12.4498C20.6495 12.2154 20.3316 12.0837 20.0001 12.0837ZM15.0001 21.2504C15.3316 21.2504 15.6495 21.1187 15.8839 20.8843C16.1184 20.6498 16.2501 20.3319 16.2501 20.0004C16.2501 19.6689 16.1184 19.3509 15.8839 19.1165C15.6495 18.8821 15.3316 18.7504 15.0001 18.7504H10.0001C9.66854 18.7504 9.3506 18.8821 9.11618 19.1165C8.88176 19.3509 8.75006 19.6689 8.75006 20.0004C8.75006 20.3319 8.88176 20.6498 9.11618 20.8843C9.3506 21.1187 9.66854 21.2504 10.0001 21.2504H15.0001ZM36.8451 24.8071L36.5001 25.1671L36.5134 25.6321C36.511 26.296 36.3274 26.9467 35.9823 27.5138C35.6371 28.081 35.1436 28.5432 34.5551 28.8504L36.2117 34.6621C36.275 34.8866 36.2742 35.1244 36.2094 35.3486C36.1445 35.5727 36.0182 35.7742 35.8448 35.9303C35.6714 36.0864 35.4577 36.1908 35.228 36.2318C34.9983 36.2727 34.7618 36.2486 34.5451 36.1621L31.4667 34.9287C30.1738 34.4112 28.7313 34.4112 27.4384 34.9287L24.3634 36.1604C24.1467 36.2462 23.9104 36.2699 23.681 36.2287C23.4516 36.1874 23.2383 36.083 23.065 35.9271C22.8918 35.7712 22.7655 35.57 22.7005 35.3462C22.6354 35.1224 22.6341 34.8849 22.6967 34.6604L24.3534 28.8487C23.7654 28.541 23.2724 28.0787 22.9276 27.5116C22.5829 26.9445 22.3993 26.2941 22.3967 25.6304V25.1304L22.0634 24.8087C21.3815 24.1219 20.9988 23.1933 20.9988 22.2254C20.9988 21.2575 21.3815 20.3289 22.0634 19.6421L22.4184 19.2871L22.4051 18.8237C22.4077 17.8585 22.7908 16.9331 23.4713 16.2486C24.1518 15.564 25.0748 15.1754 26.0401 15.1671H26.5401L26.8584 14.8337C27.5546 14.1698 28.4797 13.7994 29.4417 13.7994C30.4038 13.7994 31.3289 14.1698 32.0251 14.8337L32.3784 15.1854L32.8451 15.1737C33.8118 15.1768 34.7381 15.5615 35.4226 16.2441C36.1071 16.9267 36.4944 17.852 36.5001 18.8187V19.3187L36.8334 19.6404C37.5189 20.3246 37.9051 21.2528 37.9072 22.2213C37.9094 23.1898 37.5275 24.1197 36.8451 24.8071ZM33.0984 32.8921L32.1351 29.5121L32.0284 29.6237C31.6892 29.963 31.2864 30.2321 30.8432 30.4157C30.3999 30.5993 29.9248 30.6938 29.4451 30.6938C28.9653 30.6938 28.4902 30.5993 28.047 30.4157C27.6037 30.2321 27.201 29.963 26.8617 29.6237L26.7551 29.5171L25.7934 32.8921L26.5034 32.6054C28.3923 31.8495 30.4995 31.8495 32.3884 32.6054L33.0984 32.8921ZM35.0784 21.4054L34.7251 21.0521C34.4965 20.8243 34.3153 20.5536 34.1917 20.2556C34.0682 19.9575 34.0047 19.638 34.0051 19.3154V18.8154C34.0051 18.5089 33.8834 18.215 33.6669 17.9981C33.4503 17.7812 33.1565 17.6592 32.8501 17.6587H32.3501C32.0269 17.6597 31.7068 17.5964 31.4084 17.4725C31.11 17.3486 30.8392 17.1666 30.6117 16.9371L30.2617 16.5871C30.0417 16.3758 29.7484 16.2578 29.4434 16.2578C29.1384 16.2578 28.8451 16.3758 28.6251 16.5871L28.2734 16.9387C28.0457 17.1673 27.775 17.3486 27.477 17.4722C27.1789 17.5957 26.8594 17.6591 26.5367 17.6587H26.0367C25.7303 17.6592 25.4365 17.7812 25.2199 17.9981C25.0034 18.215 24.8817 18.5089 24.8817 18.8154V19.3154C24.883 19.6375 24.8204 19.9566 24.6977 20.2544C24.575 20.5522 24.3945 20.8227 24.1667 21.0504L23.8101 21.4054C23.5958 21.6235 23.4757 21.9171 23.4757 22.2229C23.4757 22.5287 23.5958 22.8222 23.8101 23.0404L24.1651 23.3954C24.394 23.6221 24.5756 23.8922 24.6992 24.1897C24.8228 24.4873 24.886 24.8065 24.8851 25.1287V25.6287C24.8851 25.9352 25.0067 26.2291 25.2233 26.446C25.4398 26.6629 25.7336 26.7849 26.0401 26.7854H26.5401C26.8619 26.7848 27.1808 26.8478 27.4782 26.9708C27.7757 27.0938 28.0459 27.2743 28.2734 27.5021L28.6301 27.8587C28.85 28.069 29.1425 28.1863 29.4467 28.1863C29.751 28.1863 30.0435 28.069 30.2634 27.8587L30.6201 27.5037C30.847 27.2753 31.1172 27.0943 31.4147 26.9713C31.7123 26.8482 32.0314 26.7856 32.3534 26.7871H32.8534C33.1599 26.7866 33.4537 26.6646 33.6702 26.4477C33.8868 26.2308 34.0084 25.9369 34.0084 25.6304V25.1304C34.0076 24.8087 34.0706 24.4901 34.1936 24.1929C34.3166 23.8957 34.4972 23.6258 34.7251 23.3987L35.0817 23.0421C35.2961 22.8234 35.4158 22.5292 35.4152 22.223C35.4146 21.9169 35.2936 21.6232 35.0784 21.4054ZM33.4717 22.2221C33.4721 23.0189 33.236 23.798 32.7935 24.4607C32.351 25.1234 31.7219 25.64 30.9857 25.9451C30.2496 26.2502 29.4395 26.3301 28.6579 26.1747C27.8763 26.0194 27.1584 25.6357 26.5949 25.0722C26.0315 24.5087 25.6478 23.7908 25.4924 23.0092C25.337 22.2276 25.4169 21.4175 25.722 20.6814C26.0271 19.9452 26.5437 19.3161 27.2064 18.8736C27.8691 18.4311 28.6482 18.1951 29.4451 18.1954C30.5126 18.1967 31.536 18.6214 32.2909 19.3762C33.0457 20.1311 33.4704 21.1545 33.4717 22.2221ZM30.9717 22.2221C30.9717 21.9197 30.8821 21.6242 30.714 21.3728C30.546 21.1214 30.3072 20.9255 30.0279 20.8099C29.7485 20.6943 29.4411 20.6641 29.1446 20.7232C28.8481 20.7823 28.5758 20.928 28.3621 21.1419C28.1484 21.3559 28.003 21.6283 27.9442 21.9249C27.8854 22.2215 27.916 22.5288 28.0319 22.8081C28.1478 23.0873 28.344 23.3259 28.5955 23.4936C28.8471 23.6614 29.1427 23.7507 29.4451 23.7504C29.8501 23.7499 30.2384 23.5887 30.5247 23.3022C30.8109 23.0156 30.9717 22.6271 30.9717 22.2221Z" fill="#3B8BEA" style="fill:#3B8BEA;fill:color(display-p3 0.2314 0.5451 0.9176);fill-opacity:1;"/>
</svg>
