<svg width="40" height="40" viewBox="0 0 40 40" fill="none" xmlns="http://www.w3.org/2000/svg">
<path d="M27.5148 14.6058C28.0336 15.1246 28.0336 15.9656 27.5148 16.4841L18.6049 25.3942C18.0862 25.9128 17.2454 25.9128 16.7266 25.3942L12.4852 21.1525C11.9664 20.634 11.9664 19.793 12.4852 19.2745C13.0037 18.7557 13.8447 18.7557 14.3633 19.2745L17.6657 22.5769L25.6365 14.6058C26.1553 14.0872 26.9963 14.0872 27.5148 14.6058ZM37 20C37 29.3967 29.3954 37 20 37C10.6033 37 3 29.3954 3 20C3 10.6033 10.6046 3 20 3C29.3967 3 37 10.6046 37 20ZM34.3438 20C34.3438 12.0715 27.9275 5.65625 20 5.65625C12.0715 5.65625 5.65625 12.0725 5.65625 20C5.65625 27.9285 12.0725 34.3438 20 34.3438C27.9285 34.3438 34.3438 27.9275 34.3438 20Z" fill="#3B8BEA" style="fill:#3B8BEA;fill:color(display-p3 0.2314 0.5451 0.9176);fill-opacity:1;"/>
</svg>
