<svg width="54" height="54" viewBox="0 0 54 54" fill="none" xmlns="http://www.w3.org/2000/svg">
<path fill-rule="evenodd" clip-rule="evenodd" d="M8.3652 16.705L10.6152 18.955C11.0539 19.3948 11.7661 19.3948 12.2059 18.955L16.7071 14.455C17.1458 14.0162 17.1458 13.303 16.7071 12.8642C16.2683 12.4255 15.5551 12.4255 15.1163 12.8642L11.4106 16.5688L9.95595 15.1142C9.5172 14.6755 8.80395 14.6755 8.3652 15.1142C7.92645 15.553 7.92645 16.2662 8.3652 16.705Z" fill="#3B8BEA" style="fill:#3B8BEA;fill:color(display-p3 0.2314 0.5451 0.9176);fill-opacity:1;"/>
<path fill-rule="evenodd" clip-rule="evenodd" d="M20.4102 14.7852H27.1602C27.7812 14.7852 28.2852 14.2812 28.2852 13.6602C28.2852 13.0392 27.7812 12.5352 27.1602 12.5352H20.4102C19.7892 12.5352 19.2852 13.0392 19.2852 13.6602C19.2852 14.2812 19.7892 14.7852 20.4102 14.7852Z" fill="#3B8BEA" style="fill:#3B8BEA;fill:color(display-p3 0.2314 0.5451 0.9176);fill-opacity:1;"/>
<path fill-rule="evenodd" clip-rule="evenodd" d="M20.4102 19.2852H36.1602C36.7812 19.2852 37.2852 18.7812 37.2852 18.1602C37.2852 17.5392 36.7812 17.0352 36.1602 17.0352H20.4102C19.7892 17.0352 19.2852 17.5392 19.2852 18.1602C19.2852 18.7812 19.7892 19.2852 20.4102 19.2852Z" fill="#3B8BEA" style="fill:#3B8BEA;fill:color(display-p3 0.2314 0.5451 0.9176);fill-opacity:1;"/>
<path fill-rule="evenodd" clip-rule="evenodd" d="M8.3652 27.955L10.6152 30.205C11.0539 30.6448 11.7661 30.6448 12.2059 30.205L16.7071 25.705C17.1458 25.2662 17.1458 24.553 16.7071 24.1142C16.2683 23.6755 15.5551 23.6755 15.1163 24.1142L11.4106 27.8188L9.95595 26.3642C9.5172 25.9255 8.80395 25.9255 8.3652 26.3642C7.92645 26.803 7.92645 27.5162 8.3652 27.955Z" fill="#3B8BEA" style="fill:#3B8BEA;fill:color(display-p3 0.2314 0.5451 0.9176);fill-opacity:1;"/>
<path fill-rule="evenodd" clip-rule="evenodd" d="M8.3652 39.205L10.6152 41.455C11.0539 41.8948 11.7661 41.8948 12.2059 41.455L16.7071 36.955C17.1458 36.5162 17.1458 35.803 16.7071 35.3642C16.2683 34.9255 15.5551 34.9255 15.1163 35.3642L11.4106 39.0688L9.95595 37.6142C9.5172 37.1755 8.80395 37.1755 8.3652 37.6142C7.92645 38.053 7.92645 38.7662 8.3652 39.205Z" fill="#3B8BEA" style="fill:#3B8BEA;fill:color(display-p3 0.2314 0.5451 0.9176);fill-opacity:1;"/>
<path fill-rule="evenodd" clip-rule="evenodd" d="M20.4102 26.0352H36.1602C36.7812 26.0352 37.2852 25.5312 37.2852 24.9102C37.2852 24.2892 36.7812 23.7852 36.1602 23.7852H20.4102C19.7892 23.7852 19.2852 24.2892 19.2852 24.9102C19.2852 25.5312 19.7892 26.0352 20.4102 26.0352Z" fill="#3B8BEA" style="fill:#3B8BEA;fill:color(display-p3 0.2314 0.5451 0.9176);fill-opacity:1;"/>
<path fill-rule="evenodd" clip-rule="evenodd" d="M20.4102 30.5352H29.4113C30.0323 30.5352 30.5363 30.0312 30.5363 29.4102C30.5363 28.7892 30.0323 28.2852 29.4113 28.2852H20.4102C19.7892 28.2852 19.2852 28.7892 19.2852 29.4102C19.2852 30.0312 19.7892 30.5352 20.4102 30.5352Z" fill="#3B8BEA" style="fill:#3B8BEA;fill:color(display-p3 0.2314 0.5451 0.9176);fill-opacity:1;"/>
<path fill-rule="evenodd" clip-rule="evenodd" d="M35.0161 41.4907L38.1976 44.6722C38.6366 45.1112 39.3493 45.1112 39.7883 44.6722L46.1513 38.3092C46.5904 37.8701 46.5904 37.1575 46.1513 36.7184C45.7123 36.2794 44.9996 36.2794 44.5606 36.7184L38.993 42.2861L36.6068 39.8999C36.1678 39.4609 35.4551 39.4609 35.0161 39.8999C34.577 40.339 34.577 41.0516 35.0161 41.4907Z" fill="#3B8BEA" style="fill:#3B8BEA;fill:color(display-p3 0.2314 0.5451 0.9176);fill-opacity:1;"/>
<path fill-rule="evenodd" clip-rule="evenodd" d="M20.4102 37.2852H24.9113C25.5323 37.2852 26.0363 36.7812 26.0363 36.1602C26.0363 35.5392 25.5323 35.0352 24.9113 35.0352H20.4102C19.7892 35.0352 19.2852 35.5392 19.2852 36.1602C19.2852 36.7812 19.7892 37.2852 20.4102 37.2852Z" fill="#3B8BEA" style="fill:#3B8BEA;fill:color(display-p3 0.2314 0.5451 0.9176);fill-opacity:1;"/>
<path fill-rule="evenodd" clip-rule="evenodd" d="M20.4102 41.7852H24.9113C25.5323 41.7852 26.0363 41.2812 26.0363 40.6602C26.0363 40.0392 25.5323 39.5352 24.9113 39.5352H20.4102C19.7892 39.5352 19.2852 40.0392 19.2852 40.6602C19.2852 41.2812 19.7892 41.7852 20.4102 41.7852Z" fill="#3B8BEA" style="fill:#3B8BEA;fill:color(display-p3 0.2314 0.5451 0.9176);fill-opacity:1;"/>
<path fill-rule="evenodd" clip-rule="evenodd" d="M40.6613 53.0352C40.2068 53.0352 14.7019 53.0352 6.91016 53.0352C3.80403 53.0352 1.28516 50.5174 1.28516 47.4102C1.28516 37.9973 1.28516 16.323 1.28516 6.91016C1.28516 3.80291 3.80403 1.28516 6.91016 1.28516H29.7971C31.2889 1.28516 32.7199 1.87804 33.7752 2.93216C35.9397 5.09779 40.2237 9.38178 42.3882 11.5463C43.4423 12.6015 44.0352 14.0314 44.0352 15.5232V28.752C49.227 30.2213 53.0363 34.9992 53.0363 40.6602C53.0363 47.49 47.4912 53.0352 40.6613 53.0352ZM41.7852 28.3358V15.5232C41.7852 15.2734 41.757 15.0259 41.703 14.7852H36.1613C33.0552 14.7852 30.5363 12.2663 30.5363 9.16016V3.61728C30.2955 3.56215 30.048 3.53516 29.7971 3.53516H6.91016C5.04603 3.53516 3.53516 5.04603 3.53516 6.91016V47.4102C3.53516 49.2743 5.04603 50.7852 6.91016 50.7852H33.549C30.3664 48.5453 28.2863 44.844 28.2863 40.6602C28.2863 33.8303 33.8314 28.2852 40.6613 28.2852C41.0404 28.2852 41.415 28.302 41.7852 28.3358ZM40.6613 30.5352C46.2492 30.5352 50.7863 35.0723 50.7863 40.6602C50.7863 46.248 46.2492 50.7852 40.6613 50.7852C35.0734 50.7852 30.5363 46.248 30.5363 40.6602C30.5363 35.0723 35.0734 30.5352 40.6613 30.5352ZM32.7863 5.12591V9.16016C32.7863 11.0243 34.2972 12.5352 36.1613 12.5352H40.1944L32.7863 5.12591Z" fill="#3B8BEA" style="fill:#3B8BEA;fill:color(display-p3 0.2314 0.5451 0.9176);fill-opacity:1;"/>
</svg>
