<svg width="55" height="54" viewBox="0 0 55 54" fill="none" xmlns="http://www.w3.org/2000/svg">
<g clip-path="url(#clip0_9765_47635)">
<path d="M32.6074 0H22.0605C21.478 0 21.0059 0.472289 21.0059 1.05469V11.6016C21.0059 12.184 21.478 12.6562 22.0605 12.6562H32.6074C33.1899 12.6562 33.6621 12.184 33.6621 11.6016V1.05469C33.6621 0.472289 33.1899 0 32.6074 0ZM31.5527 10.5469H23.1152V2.10938H31.5527V10.5469Z" fill="#3B8BEA" style="fill:#3B8BEA;fill:color(display-p3 0.2314 0.5451 0.9176);fill-opacity:1;"/>
<path d="M32.6064 41.3438H22.0596C21.7822 41.3438 21.5101 41.4557 21.3139 41.6529C21.1177 41.8489 21.0049 42.1211 21.0049 42.3984V52.9453C21.0049 53.2227 21.1177 53.4938 21.3139 53.691C21.5101 53.8871 21.7822 54 22.0596 54H27.8604C28.4425 54 28.915 53.5266 28.915 52.9453C28.915 52.3631 28.4425 51.8906 27.8604 51.8906H23.1143V43.4521H31.5518V48.1982C31.5518 48.7805 32.0253 49.2539 32.6064 49.2539C33.1886 49.2539 33.6611 48.7805 33.6611 48.1982V42.3984C33.6611 42.12 33.5493 41.8479 33.3532 41.6529C33.157 41.4557 32.8849 41.3438 32.6064 41.3438Z" fill="#3B8BEA" style="fill:#3B8BEA;fill:color(display-p3 0.2314 0.5451 0.9176);fill-opacity:1;"/>
<path d="M32.6064 51.8887C32.0253 51.8887 31.5518 52.3622 31.5518 52.9434C31.5518 53.5257 32.0253 53.9991 32.6064 53.9991C33.1886 53.9991 33.6611 53.5257 33.6611 52.9434C33.6611 52.3622 33.1886 51.8887 32.6064 51.8887Z" fill="#3B8BEA" style="fill:#3B8BEA;fill:color(display-p3 0.2314 0.5451 0.9176);fill-opacity:1;"/>
<path d="M12.9902 27C12.9902 23.5107 10.1514 20.6719 6.66211 20.6719C3.17278 20.6719 0.333984 23.5107 0.333984 27C0.333984 30.4893 3.17278 33.3281 6.66211 33.3281C10.1514 33.3281 12.9902 30.4892 12.9902 27ZM6.66211 31.2188C4.33589 31.2188 2.44336 29.3262 2.44336 27C2.44336 24.6738 4.33589 22.7812 6.66211 22.7812C8.98833 22.7812 10.8809 24.6738 10.8809 27C10.8809 29.3262 8.98833 31.2188 6.66211 31.2188Z" fill="#3B8BEA" style="fill:#3B8BEA;fill:color(display-p3 0.2314 0.5451 0.9176);fill-opacity:1;"/>
<path d="M48.0059 20.6719C44.5165 20.6719 41.6777 23.5107 41.6777 27C41.6777 30.4893 44.5165 33.3281 48.0059 33.3281C51.4952 33.3281 54.334 30.4893 54.334 27C54.334 23.5107 51.4952 20.6719 48.0059 20.6719ZM48.0059 31.2188C45.6796 31.2188 43.7871 29.3262 43.7871 27C43.7871 24.6738 45.6796 22.7812 48.0059 22.7812C50.3321 22.7812 52.2246 24.6738 52.2246 27C52.2246 29.3262 50.3321 31.2188 48.0059 31.2188Z" fill="#3B8BEA" style="fill:#3B8BEA;fill:color(display-p3 0.2314 0.5451 0.9176);fill-opacity:1;"/>
<path d="M7.96106 19.6967C8.09848 19.7567 8.2416 19.7852 8.38262 19.7852C8.7892 19.7852 9.17658 19.5486 9.34976 19.1523C9.65056 18.4635 9.99281 17.783 10.3669 17.1298C11.5219 15.1131 13.0035 13.3063 14.7387 11.7807L14.4713 12.3318C14.217 12.8559 14.4359 13.4868 14.9599 13.741C15.1081 13.813 15.265 13.847 15.4194 13.847C15.8108 13.847 16.1868 13.6282 16.369 13.2523L18.4559 8.95049C18.626 8.60012 18.5889 8.18447 18.3597 7.86954C18.1307 7.55471 17.7468 7.39198 17.3606 7.44566L12.6255 8.10916C12.0487 8.19006 11.6466 8.7231 11.7273 9.30001C11.8082 9.87682 12.3414 10.2788 12.9182 10.1982L13.4274 10.1268C11.4836 11.8201 9.8248 13.8315 8.53628 16.0814C8.12443 16.8004 7.74769 17.5496 7.41652 18.308C7.18344 18.842 7.42717 19.4636 7.96106 19.6967Z" fill="#3B8BEA" style="fill:#3B8BEA;fill:color(display-p3 0.2314 0.5451 0.9176);fill-opacity:1;"/>
<path d="M46.7065 35.5024C46.1727 35.2694 45.5509 35.5133 45.3179 36.0468C45.0168 36.7361 44.6746 37.4165 44.3006 38.0694C43.1456 40.0861 41.664 41.8926 39.9288 43.4182L40.1961 42.8673C40.4504 42.3432 40.2316 41.7123 39.7076 41.458C39.1837 41.2037 38.5526 41.4225 38.2983 41.9465L36.2113 46.2483C36.0412 46.5988 36.0782 47.0144 36.3075 47.3293C36.5075 47.6042 36.8258 47.7633 37.1601 47.7633C37.2086 47.7633 42.0417 47.0898 42.0417 47.0898C42.6186 47.0089 43.0206 46.4759 42.9399 45.899C42.8591 45.3222 42.3252 44.9202 41.749 45.0008L41.2398 45.0721C43.1837 43.3789 44.8425 41.3675 46.1311 39.1176C46.5428 38.399 46.9196 37.6497 47.251 36.8909C47.4841 36.3571 47.2403 35.7355 46.7065 35.5024Z" fill="#3B8BEA" style="fill:#3B8BEA;fill:color(display-p3 0.2314 0.5451 0.9176);fill-opacity:1;"/>
<path d="M43.152 15.0041L42.6008 14.7368C42.0767 14.4825 41.4458 14.7012 41.1916 15.2254C40.9373 15.7495 41.1561 16.3804 41.6801 16.6346L45.9819 18.7215C46.128 18.7924 46.2854 18.8273 46.4422 18.8273C46.6615 18.8273 46.8794 18.759 47.063 18.6253C47.3779 18.3961 47.5409 18.012 47.4869 17.6262L46.8234 12.8911C46.7425 12.3142 46.2097 11.9121 45.6325 11.9929C45.0557 12.0738 44.6536 12.6068 44.7344 13.1837L44.8058 13.693C43.1126 11.7492 41.1011 10.0903 38.8512 8.80183C38.1321 8.38998 37.3829 8.01324 36.6244 7.68207C36.0905 7.44909 35.4688 7.69293 35.2358 8.22671C35.0028 8.76049 35.2466 9.38223 35.7804 9.61521C36.4692 9.916 37.1497 10.2582 37.8028 10.6323C39.8196 11.7872 41.6263 13.2689 43.152 15.0041Z" fill="#3B8BEA" style="fill:#3B8BEA;fill:color(display-p3 0.2314 0.5451 0.9176);fill-opacity:1;"/>
<path d="M18.8867 45.5835C18.1978 45.2826 17.5173 44.9404 16.8642 44.5663C14.8475 43.4113 13.0408 41.9297 11.5152 40.1944L12.0662 40.4617C12.5902 40.7162 13.2213 40.4974 13.4755 39.9732C13.7297 39.449 13.511 38.8182 12.9869 38.5639L8.68506 36.4769C8.33459 36.3069 7.91905 36.3437 7.60401 36.5731C7.28908 36.8023 7.12613 37.1864 7.18013 37.5722L7.84353 42.3073C7.91736 42.8346 8.39735 43.2315 8.96055 43.2106C9.62342 43.126 10.0133 42.5915 9.93255 42.0146L9.86125 41.5055C11.5544 43.4493 13.5658 45.1082 15.8157 46.3968C16.5347 46.8085 17.2838 47.1854 18.0424 47.5165C18.1798 47.5766 18.323 47.605 18.4639 47.605C18.8705 47.605 19.2579 47.3686 19.431 46.9721C19.6643 46.4383 19.4205 45.8166 18.8867 45.5835Z" fill="#3B8BEA" style="fill:#3B8BEA;fill:color(display-p3 0.2314 0.5451 0.9176);fill-opacity:1;"/>
</g>
<defs>
<clipPath id="clip0_9765_47635">
<rect width="54" height="54" fill="white" style="fill:white;fill-opacity:1;" transform="translate(0.333984)"/>
</clipPath>
</defs>
</svg>
