<svg width="55" height="54" viewBox="0 0 55 54" fill="none" xmlns="http://www.w3.org/2000/svg">
<path d="M27.667 46.2868C38.3017 46.2868 46.9537 37.6347 46.9537 27C46.9537 16.3653 38.3017 7.71325 27.667 7.71325C17.0323 7.71325 8.38024 16.3653 8.38024 27C8.38024 37.6347 17.0323 46.2868 27.667 46.2868ZM27.667 9.29528C37.4294 9.29528 45.3717 17.2376 45.3717 27C45.3717 36.7624 37.4294 44.7047 27.667 44.7047C17.9046 44.7047 9.96227 36.7624 9.96227 27C9.96227 17.2376 17.9046 9.29528 27.667 9.29528ZM51.5557 47.7773C50.1134 47.7773 48.8974 48.7639 48.5465 50.0977H43.8876C43.4507 50.0977 43.0965 50.4517 43.0965 50.8887C43.0965 51.3256 43.4507 51.6797 43.8876 51.6797H48.5465C48.8974 53.0134 50.1134 54 51.5557 54C53.2712 54 54.667 52.6043 54.667 50.8887C54.667 49.173 53.2712 47.7773 51.5557 47.7773ZM51.5557 52.418C50.7124 52.418 50.0264 51.7319 50.0264 50.8887C50.0264 50.0454 50.7124 49.3594 51.5557 49.3594C52.3989 49.3594 53.085 50.0454 53.085 50.8887C53.085 51.7319 52.3989 52.418 51.5557 52.418ZM29.74 31.2234C31.9503 31.2234 33.4939 29.4866 33.4939 27C33.4939 26.563 33.1398 26.209 32.7029 26.209H30.6493C30.2125 26.209 29.8583 26.563 29.8583 27C29.8583 27.437 30.2125 27.791 30.6493 27.791H31.8298C31.6225 28.7603 31.0015 29.6414 29.7399 29.6414C28.2835 29.6414 27.0986 28.4565 27.0986 27C27.0986 25.5435 28.2835 24.3586 29.7399 24.3586C30.2692 24.3586 30.7796 24.5145 31.2161 24.8093C31.5781 25.0537 32.0699 24.9587 32.3144 24.5966C32.5589 24.2346 32.4637 23.7429 32.1016 23.4983C31.4027 23.026 30.5859 22.7765 29.7398 22.7765C27.411 22.7765 25.5165 24.6711 25.5165 26.9999C25.5165 29.3286 27.4112 31.2234 29.74 31.2234ZM38.5383 31.2234C40.867 31.2234 42.7616 29.3288 42.7616 27C42.7616 24.6712 40.867 22.7766 38.5383 22.7766C36.2095 22.7766 34.3149 24.6712 34.3149 27C34.3149 29.3288 36.2095 31.2234 38.5383 31.2234ZM38.5383 24.3586C39.9947 24.3586 41.1795 25.5435 41.1795 27C41.1795 28.4565 39.9947 29.6414 38.5383 29.6414C37.0819 29.6414 35.8969 28.4565 35.8969 27C35.8969 25.5435 37.0819 24.3586 38.5383 24.3586ZM20.4723 31.2234C22.8011 31.2234 24.6956 29.3288 24.6956 27C24.6956 24.6712 22.8011 22.7766 20.4723 22.7766C18.1436 22.7766 16.2489 24.6712 16.2489 27C16.2489 29.3288 18.1436 31.2234 20.4723 31.2234ZM20.4723 24.3586C21.9288 24.3586 23.1136 25.5435 23.1136 27C23.1136 28.4565 21.9288 29.6414 20.4723 29.6414C19.0159 29.6414 17.831 28.4565 17.831 27C17.831 25.5435 19.0159 24.3586 20.4723 24.3586ZM40.1962 50.0977H36.3741C39.978 48.7394 43.2431 46.5417 45.8948 43.6384C50.0554 39.083 52.3467 33.174 52.3467 27C52.3467 20.826 50.0554 14.917 45.8948 10.3616C43.2431 7.45822 39.978 5.26057 36.3741 3.90234H48.5465C48.8974 5.2361 50.1134 6.22266 51.5557 6.22266C53.2712 6.22266 54.667 4.82699 54.667 3.11133C54.667 1.39567 53.2712 0 51.5557 0C50.1134 0 48.8974 0.986555 48.5465 2.32031H30.7783V1.31836C30.7783 0.591363 30.187 0 29.46 0H25.874C25.147 0 24.5557 0.591363 24.5557 1.31836V2.32031H6.78745C6.43655 0.986555 5.22061 0 3.77832 0C2.06277 0 0.666992 1.39567 0.666992 3.11133C0.666992 4.82699 2.06277 6.22266 3.77832 6.22266C5.22061 6.22266 6.43655 5.2361 6.78745 3.90234H18.9559C16.5307 4.81697 14.2523 6.11529 12.2011 7.76672C11.8607 8.04073 11.807 8.53854 12.0809 8.87889C12.3562 9.22082 12.8549 9.27123 13.1931 8.99902C16.4825 6.3508 20.3947 4.67068 24.5557 4.11086V4.9043C24.5557 5.63129 25.147 6.22266 25.874 6.22266H29.46C30.187 6.22266 30.7783 5.63129 30.7783 4.9043V4.11202C36.1298 4.83279 41.0555 7.40897 44.7267 11.4285C48.6203 15.6916 50.7646 21.2217 50.7646 27C50.7646 32.7783 48.6203 38.3084 44.7267 42.5715C41.0555 46.591 36.1298 49.1672 30.7783 49.888V49.0957C30.7783 48.3687 30.187 47.7773 29.46 47.7773H25.874C25.147 47.7773 24.5557 48.3687 24.5557 49.0957V49.888C19.2042 49.1672 14.2785 46.591 10.6073 42.5715C6.71373 38.3084 4.56934 32.7783 4.56934 27C4.56934 21.2131 6.71932 15.677 10.623 11.4112C10.9179 11.0889 10.8958 10.5885 10.5736 10.2935C10.2513 9.99875 9.75091 10.0209 9.45602 10.3431C5.28463 14.9013 2.9873 20.8168 2.9873 27C2.9873 33.174 5.27861 39.083 9.43914 43.6384C12.0908 46.5418 15.3559 48.7394 18.9599 50.0977H6.78745C6.43655 48.7639 5.22061 47.7773 3.77832 47.7773C2.06277 47.7773 0.666992 49.173 0.666992 50.8887C0.666992 52.6043 2.06277 54 3.77832 54C5.22061 54 6.43655 53.0134 6.78745 51.6797H24.5557V52.6816C24.5557 53.4086 25.147 54 25.874 54H29.46C30.187 54 30.7783 53.4086 30.7783 52.6816V51.6797H40.1962C40.633 51.6797 40.9872 51.3256 40.9872 50.8887C40.9872 50.4517 40.633 50.0977 40.1962 50.0977ZM51.5557 1.58203C52.3989 1.58203 53.085 2.26811 53.085 3.11133C53.085 3.95455 52.3989 4.64062 51.5557 4.64062C50.7124 4.64062 50.0264 3.95455 50.0264 3.11133C50.0264 2.26811 50.7124 1.58203 51.5557 1.58203ZM3.77832 4.64062C2.9351 4.64062 2.24902 3.95455 2.24902 3.11133C2.24902 2.26811 2.9351 1.58203 3.77832 1.58203C4.62154 1.58203 5.30762 2.26811 5.30762 3.11133C5.30762 3.95455 4.62154 4.64062 3.77832 4.64062ZM29.1963 4.64062H26.1377V1.58203H29.1963V4.64062ZM3.77832 52.418C2.9351 52.418 2.24902 51.7319 2.24902 50.8887C2.24902 50.0454 2.9351 49.3594 3.77832 49.3594C4.62154 49.3594 5.30762 50.0454 5.30762 50.8887C5.30762 51.7319 4.62154 52.418 3.77832 52.418ZM29.1963 52.418H26.1377V49.3594H29.1963V52.418ZM13.229 31.206C13.2857 31.2158 13.3317 31.2237 14.0919 31.2237C14.4586 31.2237 14.9914 31.2218 15.7716 31.2175C16.2084 31.2151 16.5606 30.8589 16.5582 30.422C16.5558 29.9867 16.2021 29.6355 15.7673 29.6355H15.7627C15.2063 29.6385 14.6089 29.6408 14.1543 29.6413V23.5676C14.1543 23.1307 13.8002 22.7766 13.3633 22.7766C12.9265 22.7766 12.5723 23.1307 12.5723 23.5676V30.4265C12.5724 30.8115 12.8496 31.1406 13.229 31.206Z" fill="#3B8BEA" stroke="#3B8BEA" style="fill:#3B8BEA;fill:color(display-p3 0.2314 0.5451 0.9176);fill-opacity:1;stroke:#3B8BEA;stroke:color(display-p3 0.2314 0.5451 0.9176);stroke-opacity:1;" stroke-width="0.4"/>
</svg>
