<svg width="54" height="54" viewBox="0 0 54 54" fill="none" xmlns="http://www.w3.org/2000/svg">
<mask id="path-1-inside-1_9765_47627" fill="white">
<path d="M53.3419 37.0238C53.1333 36.568 52.8361 36.1583 52.4676 35.8184C52.0992 35.4786 51.6668 35.2154 51.1957 35.0443C50.7246 34.8731 50.2241 34.7973 49.7235 34.8214C49.2228 34.8454 48.7319 34.9688 48.2794 35.1844L36.3488 39.9938V39.8419C36.2007 38.6997 35.6405 37.6508 34.7735 36.8926C33.9065 36.1344 32.7924 35.7189 31.6406 35.7244C29.7 35.7244 27.3713 35.2181 20.7056 32.5519C17.3306 31.4381 12.2681 31.9275 9.75375 32.265V32.0625C9.75157 31.8926 9.71567 31.7249 9.64812 31.569C9.58057 31.4131 9.48273 31.2722 9.36027 31.1545C9.23781 31.0367 9.09317 30.9445 8.93476 30.8831C8.77635 30.8217 8.60733 30.7924 8.4375 30.7969H1.6875C1.35319 30.8013 1.03381 30.936 0.797401 31.1724C0.560991 31.4088 0.426246 31.7282 0.421875 32.0625V49.8488C0.421875 50.1844 0.555217 50.5063 0.792568 50.7437C1.02992 50.981 1.35184 51.1144 1.6875 51.1144H8.4375C8.66862 51.1118 8.89462 51.0459 9.09095 50.9239C9.28729 50.8019 9.44648 50.6285 9.55125 50.4225C14.1019 51.1814 18.7078 51.5596 23.3212 51.5531C30.1725 51.5531 37.0406 50.6925 41.1244 48.3469C46.3388 45.36 51.2494 42.2044 51.2494 42.2044C51.7286 42.0036 52.1632 41.7099 52.5282 41.3402C52.8932 40.9705 53.1813 40.5321 53.3759 40.0504C53.5705 39.5687 53.6676 39.0532 53.6618 38.5337C53.656 38.0142 53.5472 37.501 53.3419 37.0238ZM7.17188 48.5831H2.95312V33.3956H7.17188V48.5831ZM49.9669 40.0106C49.9669 40.0106 45.0563 43.1831 39.8419 46.1531C33.5138 49.7813 18.6637 49.5281 9.66938 47.8406V34.83C11.8125 34.5094 16.7906 33.9356 19.7944 34.9313C26.8144 37.7325 29.295 38.3063 31.6069 38.3063C32.1407 38.2975 32.6591 38.4852 33.0636 38.8336C33.468 39.1821 33.7303 39.667 33.8006 40.1963C33.8084 40.3424 33.8084 40.4889 33.8006 40.635H23.625C23.2893 40.635 22.9674 40.7683 22.7301 41.0057C22.4927 41.243 22.3594 41.565 22.3594 41.9006C22.3594 42.2363 22.4927 42.5582 22.7301 42.7956C22.9674 43.0329 23.2893 43.1663 23.625 43.1663H35.1169C35.2779 43.1642 35.4376 43.1357 35.5894 43.0819L49.2412 37.5806C50.22 37.1925 50.8106 37.5806 51.03 38.1038C51.2494 38.6269 51.165 39.4031 49.9669 40.0106ZM23.9119 23.1356H26.2406V21.0938H29.1769V19.2881H26.2406V17.685H28.2825C29.0272 17.7087 29.7687 17.5765 30.4594 17.2969C31.0163 17.062 31.5168 16.7111 31.9275 16.2675C32.2849 15.8477 32.5648 15.3677 32.7544 14.85C32.9203 14.3608 33.0058 13.8479 33.0075 13.3313C33.0066 12.6092 32.8512 11.8958 32.5519 11.2388C32.2575 10.5325 31.7425 9.94051 31.0837 9.55126C30.2254 9.08762 29.2571 8.86597 28.2825 8.91001H23.9119V15.5081H22.3594V17.685H23.9119V19.2881H22.3594V21.0938H23.9119V23.1356ZM26.2406 11.1544H28.4006C28.8769 11.126 29.3497 11.2502 29.7506 11.5088C30.0577 11.7206 30.2931 12.0207 30.4256 12.3694C30.5425 12.6828 30.6052 13.0137 30.6112 13.3481C30.6091 13.6955 30.5404 14.0392 30.4088 14.3606C30.2547 14.6973 30.0091 14.9838 29.7 15.1875C29.3106 15.428 28.8578 15.5456 28.4006 15.525H26.2406V11.1544ZM27 29.9531C29.7535 29.9531 32.4451 29.1366 34.7346 27.6069C37.024 26.0771 38.8084 23.9028 39.8621 21.3589C40.9158 18.815 41.1915 16.0158 40.6544 13.3152C40.1172 10.6147 38.7913 8.13401 36.8443 6.187C34.8972 4.24 32.4166 2.91406 29.716 2.37689C27.0154 1.83971 24.2162 2.11541 21.6723 3.16912C19.1284 4.22283 16.9541 6.00724 15.4244 8.29668C13.8946 10.5861 13.0781 13.2778 13.0781 16.0313C13.0826 19.7222 14.5508 23.2607 17.1607 25.8706C19.7706 28.4805 23.3091 29.9487 27 29.9531ZM27 4.64063C29.2529 4.64063 31.4551 5.30868 33.3283 6.5603C35.2015 7.81192 36.6614 9.59089 37.5236 11.6723C38.3857 13.7536 38.6113 16.0439 38.1718 18.2535C37.7322 20.463 36.6474 22.4926 35.0544 24.0856C33.4614 25.6787 31.4318 26.7635 29.2222 27.203C27.0126 27.6425 24.7224 27.417 22.641 26.5548C20.5596 25.6927 18.7807 24.2327 17.529 22.3595C16.2774 20.4864 15.6094 18.2841 15.6094 16.0313C15.6138 13.0116 16.8154 10.117 18.9505 7.9818C21.0857 5.84661 23.9804 4.64509 27 4.64063Z"/>
</mask>
<path d="M53.3419 37.0238C53.1333 36.568 52.8361 36.1583 52.4676 35.8184C52.0992 35.4786 51.6668 35.2154 51.1957 35.0443C50.7246 34.8731 50.2241 34.7973 49.7235 34.8214C49.2228 34.8454 48.7319 34.9688 48.2794 35.1844L36.3488 39.9938V39.8419C36.2007 38.6997 35.6405 37.6508 34.7735 36.8926C33.9065 36.1344 32.7924 35.7189 31.6406 35.7244C29.7 35.7244 27.3713 35.2181 20.7056 32.5519C17.3306 31.4381 12.2681 31.9275 9.75375 32.265V32.0625C9.75157 31.8926 9.71567 31.7249 9.64812 31.569C9.58057 31.4131 9.48273 31.2722 9.36027 31.1545C9.23781 31.0367 9.09317 30.9445 8.93476 30.8831C8.77635 30.8217 8.60733 30.7924 8.4375 30.7969H1.6875C1.35319 30.8013 1.03381 30.936 0.797401 31.1724C0.560991 31.4088 0.426246 31.7282 0.421875 32.0625V49.8488C0.421875 50.1844 0.555217 50.5063 0.792568 50.7437C1.02992 50.981 1.35184 51.1144 1.6875 51.1144H8.4375C8.66862 51.1118 8.89462 51.0459 9.09095 50.9239C9.28729 50.8019 9.44648 50.6285 9.55125 50.4225C14.1019 51.1814 18.7078 51.5596 23.3212 51.5531C30.1725 51.5531 37.0406 50.6925 41.1244 48.3469C46.3388 45.36 51.2494 42.2044 51.2494 42.2044C51.7286 42.0036 52.1632 41.7099 52.5282 41.3402C52.8932 40.9705 53.1813 40.5321 53.3759 40.0504C53.5705 39.5687 53.6676 39.0532 53.6618 38.5337C53.656 38.0142 53.5472 37.501 53.3419 37.0238ZM7.17188 48.5831H2.95312V33.3956H7.17188V48.5831ZM49.9669 40.0106C49.9669 40.0106 45.0563 43.1831 39.8419 46.1531C33.5138 49.7813 18.6637 49.5281 9.66938 47.8406V34.83C11.8125 34.5094 16.7906 33.9356 19.7944 34.9313C26.8144 37.7325 29.295 38.3063 31.6069 38.3063C32.1407 38.2975 32.6591 38.4852 33.0636 38.8336C33.468 39.1821 33.7303 39.667 33.8006 40.1963C33.8084 40.3424 33.8084 40.4889 33.8006 40.635H23.625C23.2893 40.635 22.9674 40.7683 22.7301 41.0057C22.4927 41.243 22.3594 41.565 22.3594 41.9006C22.3594 42.2363 22.4927 42.5582 22.7301 42.7956C22.9674 43.0329 23.2893 43.1663 23.625 43.1663H35.1169C35.2779 43.1642 35.4376 43.1357 35.5894 43.0819L49.2412 37.5806C50.22 37.1925 50.8106 37.5806 51.03 38.1038C51.2494 38.6269 51.165 39.4031 49.9669 40.0106ZM23.9119 23.1356H26.2406V21.0938H29.1769V19.2881H26.2406V17.685H28.2825C29.0272 17.7087 29.7687 17.5765 30.4594 17.2969C31.0163 17.062 31.5168 16.7111 31.9275 16.2675C32.2849 15.8477 32.5648 15.3677 32.7544 14.85C32.9203 14.3608 33.0058 13.8479 33.0075 13.3313C33.0066 12.6092 32.8512 11.8958 32.5519 11.2388C32.2575 10.5325 31.7425 9.94051 31.0837 9.55126C30.2254 9.08762 29.2571 8.86597 28.2825 8.91001H23.9119V15.5081H22.3594V17.685H23.9119V19.2881H22.3594V21.0938H23.9119V23.1356ZM26.2406 11.1544H28.4006C28.8769 11.126 29.3497 11.2502 29.7506 11.5088C30.0577 11.7206 30.2931 12.0207 30.4256 12.3694C30.5425 12.6828 30.6052 13.0137 30.6112 13.3481C30.6091 13.6955 30.5404 14.0392 30.4088 14.3606C30.2547 14.6973 30.0091 14.9838 29.7 15.1875C29.3106 15.428 28.8578 15.5456 28.4006 15.525H26.2406V11.1544ZM27 29.9531C29.7535 29.9531 32.4451 29.1366 34.7346 27.6069C37.024 26.0771 38.8084 23.9028 39.8621 21.3589C40.9158 18.815 41.1915 16.0158 40.6544 13.3152C40.1172 10.6147 38.7913 8.13401 36.8443 6.187C34.8972 4.24 32.4166 2.91406 29.716 2.37689C27.0154 1.83971 24.2162 2.11541 21.6723 3.16912C19.1284 4.22283 16.9541 6.00724 15.4244 8.29668C13.8946 10.5861 13.0781 13.2778 13.0781 16.0313C13.0826 19.7222 14.5508 23.2607 17.1607 25.8706C19.7706 28.4805 23.3091 29.9487 27 29.9531ZM27 4.64063C29.2529 4.64063 31.4551 5.30868 33.3283 6.5603C35.2015 7.81192 36.6614 9.59089 37.5236 11.6723C38.3857 13.7536 38.6113 16.0439 38.1718 18.2535C37.7322 20.463 36.6474 22.4926 35.0544 24.0856C33.4614 25.6787 31.4318 26.7635 29.2222 27.203C27.0126 27.6425 24.7224 27.417 22.641 26.5548C20.5596 25.6927 18.7807 24.2327 17.529 22.3595C16.2774 20.4864 15.6094 18.2841 15.6094 16.0313C15.6138 13.0116 16.8154 10.117 18.9505 7.9818C21.0857 5.84661 23.9804 4.64509 27 4.64063Z" fill="#3B8BEA" stroke="#F4F6FB" style="fill:#3B8BEA;fill:color(display-p3 0.2314 0.5451 0.9176);fill-opacity:1;stroke:#F4F6FB;stroke:color(display-p3 0.9569 0.9647 0.9843);stroke-opacity:1;" stroke-width="0.2" mask="url(#path-1-inside-1_9765_47627)"/>
</svg>
