<svg width="44" height="44" viewBox="0 0 44 44" fill="none" xmlns="http://www.w3.org/2000/svg">
<path d="M33 17.875H30.25V13.75H23.375V11H31.625C32.385 11 33 11.6157 33 12.375V17.875Z" fill="#78859F" style="fill:#78859F;fill:color(display-p3 0.4718 0.5201 0.6250);fill-opacity:1;"/>
<path d="M20.625 33H12.375C11.6157 33 11 32.3843 11 31.625V23.375H13.75V30.25H20.625V33Z" fill="#78859F" style="fill:#78859F;fill:color(display-p3 0.4718 0.5201 0.6250);fill-opacity:1;"/>
<path d="M21.4793 10.8698L18.8708 10.2177C18.7658 9.90178 18.6432 9.59789 18.4954 9.30424L19.877 7.00164C20.0393 6.73116 19.9967 6.38489 19.7736 6.16182L18.5882 4.9764C18.3651 4.75333 18.0188 4.7107 17.7484 4.87301L15.4458 6.25455C15.1521 6.10685 14.8482 5.98424 14.5323 5.87925L13.8802 3.27074C13.8037 2.96468 13.5287 2.75 13.2132 2.75H11.5368C11.2213 2.75 10.9464 2.96468 10.8698 3.27074L10.2177 5.87925C9.90178 5.98424 9.59789 6.10677 9.30424 6.25455L7.00164 4.87301C6.73116 4.7107 6.38489 4.75333 6.16182 4.9764L4.9764 6.16182C4.75333 6.38489 4.7107 6.73116 4.87301 7.00164L6.25455 9.30424C6.10677 9.59789 5.98424 9.90178 5.87925 10.2177L3.27074 10.8698C2.96476 10.9463 2.75 11.2213 2.75 11.5368V13.2132C2.75 13.5287 2.96476 13.8037 3.27074 13.8802L5.87925 14.5323C5.98424 14.8482 6.10677 15.1521 6.25455 15.4458L4.87301 17.7484C4.7107 18.0188 4.75333 18.3651 4.9764 18.5882L6.16182 19.7736C6.38489 19.9967 6.73116 20.0393 7.00164 19.877L9.30424 18.4954C9.59789 18.6432 9.90178 18.7658 10.2177 18.8708L10.8698 21.4793C10.9464 21.7853 11.2213 22 11.5368 22H13.2132C13.5287 22 13.8037 21.7853 13.8802 21.4793L14.5323 18.8708C14.8482 18.7658 15.1521 18.6432 15.4458 18.4954L17.7484 19.877C18.0188 20.0393 18.3651 19.9967 18.5882 19.7736L19.7736 18.5882C19.9967 18.3651 20.0393 18.0188 19.877 17.7484L18.4954 15.4458C18.6432 15.1521 18.7658 14.8482 18.8708 14.5323L21.4793 13.8802C21.7853 13.8037 22 13.5287 22 13.2132V11.5368C22 11.2213 21.7853 10.9463 21.4793 10.8698ZM12.375 16.5C10.0968 16.5 8.25 14.6532 8.25 12.375C8.25 10.0968 10.0968 8.25 12.375 8.25C14.6532 8.25 16.5 10.0968 16.5 12.375C16.5 14.6532 14.6532 16.5 12.375 16.5Z" fill="#78859F" style="fill:#78859F;fill:color(display-p3 0.4718 0.5201 0.6250);fill-opacity:1;"/>
<path d="M12.375 15.125C13.8938 15.125 15.125 13.8938 15.125 12.375C15.125 10.8562 13.8938 9.625 12.375 9.625C10.8562 9.625 9.625 10.8562 9.625 12.375C9.625 13.8938 10.8562 15.125 12.375 15.125Z" fill="#78859F" style="fill:#78859F;fill:color(display-p3 0.4718 0.5201 0.6250);fill-opacity:1;"/>
<path d="M30.9428 19.4347L22 24.6437L31.625 30.25L41.25 24.6437L32.3072 19.4347C31.8845 19.1884 31.3655 19.1884 30.9428 19.4347Z" fill="#78859F" style="fill:#78859F;fill:color(display-p3 0.4718 0.5201 0.6250);fill-opacity:1;"/>
<path d="M22 26.125L30.9375 31.35V41.25L22.6544 36.1527C22.2477 35.9024 22 35.4591 22 34.9817V26.125Z" fill="#78859F" style="fill:#78859F;fill:color(display-p3 0.4718 0.5201 0.6250);fill-opacity:1;"/>
<path d="M41.25 26.125L32.3125 31.35V41.25L40.5956 36.1527C41.0023 35.9024 41.25 35.4591 41.25 34.9817V26.125Z" fill="#78859F" style="fill:#78859F;fill:color(display-p3 0.4718 0.5201 0.6250);fill-opacity:1;"/>
</svg>
