<svg width="44" height="44" viewBox="0 0 44 44" fill="none" xmlns="http://www.w3.org/2000/svg">
<path d="M9.79358 25.3768L8.09356 28.3083C7.49953 28.1683 7.02621 27.7964 6.63985 27.1637C6.44185 26.8353 6.45632 26.3958 6.67849 26.0432L7.25805 25.1353C7.25805 25.1305 7.26288 25.1305 7.26288 25.1256L7.33531 25.0097C7.56231 24.6572 7.95351 24.4543 8.3302 24.493C8.95804 24.5558 9.43136 24.8407 9.79358 25.3768Z" fill="#78859F" style="fill:#78859F;fill:color(display-p3 0.4718 0.5201 0.6250);fill-opacity:1;"/>
<path d="M13.9468 27.2281L11.3679 31.1304C9.69199 30.9179 9.30563 30.0679 9.21387 29.271L11.194 25.8565C12.0005 25.1707 12.9037 25.2142 13.4494 25.5764C13.9855 25.9289 14.1642 26.5278 13.9468 27.2281Z" fill="#78859F" style="fill:#78859F;fill:color(display-p3 0.4718 0.5201 0.6250);fill-opacity:1;"/>
<path d="M16.7961 30.3864L14.7194 33.2552C13.7149 33.2069 13.0194 32.7819 12.5654 31.9464L15.0382 28.2083C15.7191 28.1213 16.2649 28.2469 16.5788 28.5898C16.9265 28.9713 17.0038 29.6233 16.7961 30.3864Z" fill="#78859F" style="fill:#78859F;fill:color(display-p3 0.4718 0.5201 0.6250);fill-opacity:1;"/>
<path d="M18.9166 33.289L18.4384 34.0811C18.1873 34.4964 17.7478 34.7572 17.26 34.7766C16.7626 34.7959 16.3569 34.5834 16.0816 34.2018C16.043 34.1439 15.9995 34.0811 15.9561 34.0183L17.8879 31.3476C18.5302 31.2365 18.7475 31.4248 18.8924 31.618C19.2402 32.0672 19.2498 32.7433 18.9166 33.289Z" fill="#78859F" style="fill:#78859F;fill:color(display-p3 0.4718 0.5201 0.6250);fill-opacity:1;"/>
<path d="M35.6166 26.5793C35.2785 27.1105 34.6458 27.4099 33.6944 27.4969L28.2756 24.1307C27.9376 23.923 27.4884 24.0244 27.2807 24.3625C27.0682 24.7054 27.1745 25.1497 27.5126 25.3622L32.801 28.6463C32.7865 29.1389 32.6706 29.5156 32.4291 29.7764C32.0958 30.1387 31.4921 30.3367 30.6421 30.3753L26.1506 27.8446C25.8029 27.6466 25.3634 27.7673 25.1654 28.1199C24.9674 28.4676 25.093 28.9071 25.4407 29.1051L29.7052 31.5102C29.5941 32.1574 29.116 32.8094 27.4305 33.0364L23.2577 31.0466C22.8955 30.8727 22.4657 31.0273 22.2918 31.3895C22.1179 31.7517 22.2725 32.1816 22.6347 32.3554L26.5853 34.239C26.5225 34.6302 26.2714 34.8427 25.7498 34.9731C25.3827 35.0696 24.9625 35.0552 24.5134 34.9441L20.2537 33.8526C20.7801 32.8287 20.7077 31.602 20.0412 30.7327C19.5389 30.0807 18.9014 29.8827 18.3509 29.8634C18.4088 28.9699 18.1673 28.1779 17.6458 27.608C17.1241 27.0332 16.3756 26.7338 15.4869 26.7193C15.4966 25.7631 15.0571 24.8986 14.2457 24.3625C13.3812 23.7926 12.0579 23.6187 10.8264 24.3383C10.2323 23.5898 9.43063 23.1454 8.47436 23.0536C7.82237 22.9861 7.17523 23.2034 6.6681 23.6139L5.47521 22.0394C5.07434 21.5082 4.5431 21.0832 3.94424 20.8224L1.09961 19.5619L3.13768 8.96094L9.96187 12.1485C11.488 12.8246 13.0866 13.3221 14.8204 13.6649C14.3085 14.4232 13.7917 15.1814 13.2653 15.9638C13.0045 16.3502 12.8693 16.7945 12.8693 17.2582C12.8693 18.3158 13.5792 19.2383 14.5886 19.5088C15.0716 19.6392 15.5787 19.615 16.0616 19.4267C17.4622 18.8761 18.7372 17.7798 19.9591 16.0846L21.8282 15.5533L27.8362 18.7843L34.8729 25.0338C34.8825 25.0386 34.8922 25.0483 34.9018 25.0531L35.4427 25.5361C35.747 25.8065 35.8243 26.2557 35.6166 26.5793Z" fill="#78859F" style="fill:#78859F;fill:color(display-p3 0.4718 0.5201 0.6250);fill-opacity:1;"/>
<path d="M42.8998 20.176L40.2049 20.799C39.5432 20.9487 38.9202 21.2578 38.4035 21.6973C37.5052 22.4555 36.5489 23.093 35.4864 23.6388L28.7346 17.6453C28.696 17.6066 28.6477 17.5777 28.5994 17.5487L22.2534 14.139C22.1471 14.0811 22.0312 14.0521 21.9104 14.0521C21.8429 14.0521 21.7752 14.0617 21.7124 14.0811L19.317 14.762C19.1576 14.8103 19.0175 14.9069 18.9209 15.047C17.8246 16.6214 16.7138 17.6115 15.5402 18.0751C15.3519 18.1524 15.1539 18.1621 14.9655 18.1137C14.5164 17.993 14.3184 17.597 14.3184 17.2589C14.3184 17.085 14.3666 16.916 14.4681 16.7711C15.207 15.6845 15.9266 14.6171 16.6414 13.5546L16.6511 13.5449C16.6511 13.5401 16.6511 13.5401 16.6559 13.5401L16.7573 13.3856C16.8056 13.318 16.8491 13.2503 16.8877 13.1924C17.3562 12.5018 18.0951 12.014 18.9113 11.8643C20.9735 11.4876 22.9971 11.3089 24.9338 11.3379C25.1559 11.3379 25.4023 11.3716 25.6679 11.4344L30.1159 12.4921C30.7631 12.6418 31.4441 12.6563 32.1009 12.5404L33.4918 12.2796C33.8298 12.2168 34.1679 12.1202 34.4963 11.9802L40.8086 9.29492L42.8998 20.176Z" fill="#78859F" style="fill:#78859F;fill:color(display-p3 0.4718 0.5201 0.6250);fill-opacity:1;"/>
</svg>
