<svg width="44" height="44" viewBox="0 0 44 44" fill="none" xmlns="http://www.w3.org/2000/svg">
<path fill-rule="evenodd" clip-rule="evenodd" d="M35.3082 17.0419V22.5649C35.3082 22.8985 35.0378 23.1688 34.7043 23.1688H27.421V21.961H34.1003V9.86229C33.4275 9.61572 32.9468 8.96926 32.9468 8.21143C32.9468 7.24144 33.7343 6.45393 34.7043 6.45393C35.6743 6.45393 36.4618 7.24144 36.4618 8.21143C36.4618 8.96926 35.981 9.61572 35.3082 9.86229V15.834H39.5513C39.7918 15.2303 40.3818 14.8031 41.0709 14.8031C41.9732 14.8031 42.7057 15.5357 42.7057 16.438C42.7057 17.3403 41.9732 18.0729 41.0709 18.0729C40.3818 18.0729 39.7918 17.6456 39.5513 17.0419H35.3082ZM32.28 30.2824V26.5537H27.4207C27.4209 26.5422 27.421 26.5307 27.421 26.5191V25.3459H32.884C33.2175 25.3459 33.4879 25.6163 33.4879 25.9498V29.6785H37.731C37.9715 29.0748 38.5615 28.6475 39.2506 28.6475C40.1528 28.6475 40.8854 29.3801 40.8854 30.2824C40.8854 31.1847 40.1528 31.9172 39.2506 31.9172C38.5615 31.9172 37.9715 31.4901 37.731 30.8863H33.4879V34.5053C34.0916 34.7458 34.5189 35.3358 34.5189 36.0249C34.5189 36.9271 33.7863 37.6597 32.884 37.6597C31.9817 37.6597 31.2491 36.9271 31.2491 36.0249C31.2491 35.3358 31.6763 34.7458 32.28 34.5053V30.2824ZM27.6641 10.5728C27.4176 11.2457 26.7712 11.7264 26.0132 11.7264C25.0432 11.7264 24.2557 10.9389 24.2557 9.96892C24.2557 8.99894 25.0432 8.21143 26.0132 8.21143C26.7712 8.21143 27.4176 8.69215 27.6641 9.365H30.3777C30.7112 9.365 30.9816 9.63539 30.9816 9.96892V18.3096C30.9816 18.6431 30.7112 18.9135 30.3777 18.9135H27.421V17.7057H29.7738V10.5728H27.6641ZM21.3582 4.36074V12.0757C20.6187 11.904 19.849 11.8131 19.0587 11.8131C13.4463 11.8131 8.87083 16.3887 8.87083 22.001C8.87083 27.6109 13.4463 32.1889 19.0587 32.1889C19.849 32.1889 20.6187 32.0981 21.3582 31.9263V39.6392C21.2005 39.7187 21.0222 39.7633 20.8335 39.7633H17.2814C16.6374 39.7633 16.1149 39.243 16.1149 38.5968C16.1149 35.0951 11.8788 33.341 9.40306 35.8169C8.94779 36.2721 8.20928 36.2721 7.75401 35.8169L5.24049 33.3054C4.78522 32.8501 4.78522 32.1095 5.24049 31.6542C7.71415 29.1805 5.9601 24.9424 2.46046 24.9424C1.81634 24.9424 1.29395 24.42 1.29395 23.7759V20.2238C1.29395 19.5796 1.81634 19.0573 2.46046 19.0573C5.9601 19.0573 7.71415 14.8191 5.24049 12.3454C4.78522 11.8902 4.78522 11.1517 5.24049 10.6963L7.75401 8.18278C8.20928 7.72751 8.94779 7.72751 9.40306 8.18278C11.8767 10.6564 16.1149 8.90248 16.1149 5.40285C16.1149 4.75872 16.6374 4.23633 17.2814 4.23633H20.8335C21.0222 4.23633 21.2005 4.2811 21.3582 4.36074ZM24.9578 16.2251C25.6511 16.2251 26.2131 16.7871 26.2131 17.4805V26.5191C26.2131 27.2125 25.6511 27.7745 24.9578 27.7745H15.919C15.2257 27.7745 14.6636 27.2125 14.6636 26.5191V17.4805C14.6636 16.7871 15.2257 16.2251 15.919 16.2251H24.9578Z" fill="#78859F" style="fill:#78859F;fill:color(display-p3 0.4718 0.5201 0.6250);fill-opacity:1;"/>
</svg>
