<svg width="146" height="40" viewBox="0 0 146 40" fill="none" xmlns="http://www.w3.org/2000/svg">
<g clip-path="url(#clip0_9514_100)">
<path fill-rule="evenodd" clip-rule="evenodd" d="M27.7755 6.57017C27.6172 6.97337 26.8121 7.59982 26.5764 9.41589C26.4517 10.3656 26.5494 11.3486 26.7684 12.2683C26.8761 12.7148 27.1995 13.8344 27.4791 14.1743L30.9688 10.7254C30.3928 9.9657 29.9953 7.7631 30.0155 6.92005C30.0189 6.7601 30.0256 6.60349 30.0256 6.44354C30.0256 6.31025 30.0256 6.32025 30.0391 6.18696C30.0492 6.10366 30.0559 6.04034 30.0694 5.96704C30.2041 5.05734 30.578 3.85441 31.2584 3.16797C30.8408 3.50452 28.2707 6.05701 27.7755 6.57017Z" fill="white" style="fill:white;fill-opacity:1;"/>
<path fill-rule="evenodd" clip-rule="evenodd" d="M24.4952 9.81061C22.9458 11.4034 22.838 13.7393 23.286 15.652C23.3904 16.0885 23.7138 17.1948 23.9933 17.6213L27.483 14.1725C27.2034 13.8326 26.8801 12.7163 26.7723 12.2665C26.5533 11.3468 26.4556 10.3638 26.5803 9.41408C26.8194 7.59802 27.6211 6.97156 27.7794 6.56836L24.4986 9.80728L24.4952 9.81061Z" fill="white" style="fill:white;fill-opacity:1;"/>
<path fill-rule="evenodd" clip-rule="evenodd" d="M31.7236 9.99723C33.2259 8.26448 34.7215 7.76131 35.2773 5.02889C35.5569 3.65601 35.1426 1.12353 34.4621 0.0605469L34.388 0.0905369C34.2297 0.187171 33.3102 1.13352 33.1687 1.27348C32.9026 1.53672 32.0537 2.29314 31.9224 2.53972C32.1278 3.17617 32.2862 3.26614 32.5657 4.35911C32.8689 5.54205 32.9396 6.92493 32.6062 8.09453C32.4849 8.51773 32.2558 9.11086 32.0099 9.4874C31.8584 9.72066 31.727 9.78064 31.7236 9.9939V9.99723Z" fill="white" style="fill:white;fill-opacity:1;"/>
<path fill-rule="evenodd" clip-rule="evenodd" d="M24.4848 9.81925L27.7656 6.58033C28.2642 6.06384 30.8309 3.51469 31.2486 3.17813C30.5681 3.86457 30.1943 5.06751 30.0595 5.9772C30.0494 6.05051 30.0393 6.11382 30.0292 6.19713C30.0124 6.32709 30.0157 6.32042 30.0157 6.45371C30.0157 6.61366 30.009 6.77027 30.0056 6.93022C29.9854 7.77327 30.3863 9.97587 30.9589 10.7356L31.7201 9.99919C31.7201 9.78593 31.8549 9.72595 32.0065 9.4927C32.2523 9.11282 32.4814 8.52302 32.6027 8.09983C32.9361 6.93022 32.8688 5.54735 32.5622 4.36441C32.2793 3.27144 32.1243 3.18147 31.9189 2.54501C32.0502 2.2951 32.8991 1.54201 33.1652 1.27877C33.3067 1.13881 34.2262 0.189132 34.3845 0.0958294L34.4587 0.0658394L34.3744 0.00585938C33.8961 0.465706 24.66 9.4927 24.4814 9.82592L24.4848 9.81925Z" fill="white" style="fill:white;fill-opacity:1;"/>
<path fill-rule="evenodd" clip-rule="evenodd" d="M26.2499 28.2173C25.9771 27.8774 25.8323 26.8778 24.3603 25.7682C23.5923 25.1883 22.6828 24.7785 21.7666 24.5086C21.322 24.3753 20.1801 24.0954 19.7422 24.1654L21.0188 28.8804C21.9721 28.7672 24.1009 29.5269 24.8285 29.9668C24.9666 30.0501 25.1013 30.1334 25.2394 30.2133C25.3539 30.28 25.3506 30.2733 25.4584 30.3533C25.5257 30.4033 25.5763 30.4399 25.6369 30.4866C26.3645 31.0564 27.2301 31.9794 27.4929 32.9058C27.4087 32.3793 26.4588 28.9038 26.2567 28.2207L26.2499 28.2173Z" fill="white" style="fill:white;fill-opacity:1;"/>
<path fill-rule="evenodd" clip-rule="evenodd" d="M25.0544 23.7882C24.4346 21.6656 22.4473 20.4027 20.5441 19.8328C20.1096 19.7029 18.9812 19.4263 18.4658 19.453L19.7391 24.1647C20.1736 24.0948 21.3155 24.3747 21.7635 24.508C22.6797 24.7779 23.5892 25.1877 24.3572 25.7675C25.8291 26.8805 25.974 27.8802 26.2468 28.2167L25.051 23.7849L25.0544 23.7882Z" fill="white" style="fill:white;fill-opacity:1;"/>
<path fill-rule="evenodd" clip-rule="evenodd" d="M21.2778 29.8867C22.0424 32.0393 21.7359 33.5755 23.8512 35.4149C24.9123 36.3379 27.3375 37.2509 28.6074 37.2009L28.6175 37.1243C28.6142 36.941 28.2436 35.6815 28.1897 35.4882C28.0921 35.1283 27.8529 34.0253 27.7013 33.7888C27.0377 33.6455 26.8828 33.7354 25.7847 33.4322C24.5957 33.1023 23.3493 32.4692 22.4938 31.5961C22.1839 31.2796 21.7797 30.7864 21.5742 30.3866C21.4462 30.14 21.4597 29.9967 21.2744 29.8867H21.2778Z" fill="white" style="fill:white;fill-opacity:1;"/>
<path fill-rule="evenodd" clip-rule="evenodd" d="M25.0509 23.7754L26.2467 28.2072C26.4488 28.8904 27.3986 32.3659 27.4829 32.8924C27.2201 31.966 26.3544 31.043 25.6269 30.4732C25.5662 30.4265 25.5157 30.3865 25.4483 30.3399C25.3406 30.2599 25.3473 30.2666 25.2294 30.1999C25.0913 30.1199 24.9566 30.0366 24.8185 29.9533C24.0909 29.5168 21.962 28.7571 21.0088 28.867L21.2749 29.8867C21.4602 29.9967 21.4467 30.1366 21.5747 30.3865C21.7835 30.7864 22.1844 31.2796 22.4943 31.5961C23.3498 32.4692 24.5961 33.0989 25.7852 33.4322C26.8833 33.7387 27.0382 33.6488 27.7018 33.7887C27.8534 34.0253 28.0925 35.1283 28.1902 35.4882C28.2407 35.6814 28.6113 36.941 28.618 37.1243L28.6079 37.2009L28.7022 37.1609C28.5372 36.5211 25.253 24.0953 25.0509 23.7754Z" fill="white" style="fill:white;fill-opacity:1;"/>
<path fill-rule="evenodd" clip-rule="evenodd" d="M11.5669 11.3468C11.1323 11.4134 10.1858 11.0369 8.47467 11.74C7.58205 12.1065 6.77026 12.683 6.073 13.3328C5.73616 13.6494 4.91764 14.4858 4.7627 14.8956L9.52898 16.1619C9.90625 15.2888 11.6376 13.846 12.382 13.4394C12.5235 13.3628 12.665 13.2895 12.8031 13.2128C12.9176 13.1462 12.9109 13.1495 13.0321 13.0962C13.1096 13.0629 13.1702 13.0396 13.241 13.0096C14.1033 12.673 15.3428 12.3898 16.286 12.6297C15.7807 12.4398 12.2641 11.5134 11.5635 11.3468H11.5669Z" fill="white" style="fill:white;fill-opacity:1;"/>
<path fill-rule="evenodd" clip-rule="evenodd" d="M7.09049 10.1557C4.92123 9.62585 2.82272 10.6988 1.37094 12.0417C1.03747 12.3483 0.23242 13.178 0 13.6312L4.76292 14.8974C4.91787 14.4876 5.73639 13.6512 6.07323 13.3346C6.76712 12.6848 7.58227 12.1117 8.4749 11.7418C10.1827 11.0387 11.1326 11.4119 11.5671 11.3486L7.09049 10.159V10.1557Z" fill="white" style="fill:white;fill-opacity:1;"/>
<path fill-rule="evenodd" clip-rule="evenodd" d="M10.54 16.4418C12.807 16.865 13.996 17.8947 16.6672 17.0017C18.0078 16.5551 20.0187 14.9323 20.6082 13.8194L20.5442 13.7694C20.3825 13.6828 19.0924 13.3695 18.897 13.3162C18.5333 13.2196 17.4486 12.873 17.1657 12.883C16.711 13.3795 16.711 13.5561 15.8958 14.3459C15.0133 15.1989 13.8377 15.9487 12.6453 16.2486C12.2141 16.3552 11.5809 16.4552 11.1261 16.4318C10.8466 16.4185 10.7287 16.3352 10.54 16.4385V16.4418Z" fill="white" style="fill:white;fill-opacity:1;"/>
<path fill-rule="evenodd" clip-rule="evenodd" d="M7.07715 10.1524L11.5538 11.342C12.2544 11.5086 15.771 12.435 16.2763 12.6249C15.3331 12.385 14.0935 12.6682 13.2312 13.0048C13.1605 13.0314 13.0999 13.0581 13.0257 13.0914C12.9045 13.1447 12.9112 13.1414 12.7967 13.208C12.6586 13.288 12.5171 13.358 12.3756 13.4346C11.6279 13.8412 9.89987 15.284 9.52261 16.1571L10.5466 16.4403C10.7352 16.337 10.8531 16.4203 11.1327 16.4336C11.5874 16.4569 12.2207 16.357 12.6519 16.2504C13.8443 15.9538 15.0198 15.2007 15.9024 14.3477C16.7209 13.5579 16.7175 13.3813 17.1722 12.8848C17.4552 12.8715 18.5398 13.2214 18.9036 13.318C19.099 13.368 20.3857 13.6812 20.5508 13.7712L20.6148 13.8212L20.6249 13.7179C19.9849 13.5379 7.46115 10.1391 7.08389 10.1524H7.07715Z" fill="white" style="fill:white;fill-opacity:1;"/>
<path d="M40.9365 19.7C41.5664 19.8866 42.0515 20.1865 42.3849 20.6063C42.7184 21.0262 42.8868 21.5427 42.8868 22.1558C42.8868 23.0622 42.5399 23.7686 41.846 24.2751C41.1521 24.7816 40.1584 25.0348 38.8683 25.0348H33.7686V14.7983H38.5887C39.7913 14.7983 40.7277 15.0282 41.398 15.4847C42.0683 15.9445 42.4018 16.5943 42.4018 17.444C42.4018 17.9505 42.2738 18.3971 42.0178 18.7803C41.7618 19.1668 41.4014 19.47 40.9399 19.6933L40.9365 19.7ZM36.1466 19.0402H38.3799C38.902 19.0402 39.2961 18.9369 39.5622 18.7269C39.8283 18.517 39.963 18.2071 39.963 17.7973C39.963 17.3874 39.8283 17.0908 39.5555 16.8776C39.286 16.6643 38.8919 16.5543 38.3799 16.5543H36.1466V19.0402ZM38.7774 23.2788C39.899 23.2788 40.4616 22.8389 40.4616 21.9625C40.4616 21.0862 39.899 20.6896 38.7774 20.6896H36.1466V23.2788H38.7774ZM52.7899 23.1321V25.0315H44.7799V14.7949H52.5979V16.6976H47.158V18.9202H51.9613V20.7629H47.158V23.1321H52.7899ZM64.2155 14.7983V25.0348H61.8206V20.8396H57.1217V25.0348H54.7268V14.7983H57.1217V18.8336H61.8206V14.7983H64.2155ZM74.7115 16.7276H71.4003V25.0315H69.0357V16.7276H65.7381V14.7983H74.7081V16.7276H74.7115Z" fill="white" style="fill:white;fill-opacity:1;"/>
<path d="M40.7747 37.6307H35.9714L35.0552 39.8234H32.5996L37.211 29.5868H39.5756L44.2038 39.8234H41.6909L40.7747 37.6307ZM40.0202 35.8313L38.3798 31.9127L36.7394 35.8313H40.0202ZM52.746 34.4851C53.3759 34.6717 53.861 34.9716 54.1944 35.3915C54.5279 35.8114 54.6963 36.3278 54.6963 36.941C54.6963 37.8473 54.3494 38.5538 53.6555 39.0603C52.9616 39.5668 51.9679 39.82 50.6778 39.82H45.5781V29.5834H50.3982C51.6008 29.5834 52.5372 29.8134 53.2075 30.2699C53.8778 30.7297 54.2113 31.3795 54.2113 32.2292C54.2113 32.7357 54.0833 33.1822 53.8273 33.5654C53.5713 33.952 53.2109 34.2552 52.7494 34.4785L52.746 34.4851ZM47.9562 33.8254H50.1894C50.7115 33.8254 51.1056 33.7221 51.3717 33.5121C51.6378 33.3022 51.7726 32.9923 51.7726 32.5824C51.7726 32.1726 51.6378 31.876 51.365 31.6627C51.0955 31.4495 50.7014 31.3395 50.1894 31.3395H47.9562V33.8254ZM50.5869 38.0639C51.7085 38.0639 52.2711 37.6241 52.2711 36.7477C52.2711 35.8713 51.7085 35.4748 50.5869 35.4748H47.9562V38.0639H50.5869ZM64.3468 31.5128H61.0357V39.8167H58.671V31.5128H55.3734V29.5834H64.3434V31.5128H64.3468ZM70.6423 39.9933C69.5678 39.9933 68.6011 39.7634 67.7388 39.3069C66.8765 38.8503 66.2028 38.2172 65.7144 37.4142C65.2259 36.6111 64.9834 35.7047 64.9834 34.7017C64.9834 33.6987 65.2293 32.7924 65.7144 31.9893C66.2028 31.1862 66.8765 30.5531 67.7388 30.0966C68.6011 29.6401 69.5678 29.4102 70.6423 29.4102C71.7169 29.4102 72.6836 29.6401 73.5392 30.0966C74.3947 30.5564 75.0718 31.1862 75.5636 31.9893C76.0554 32.7924 76.3013 33.6987 76.3013 34.7017C76.3013 35.7047 76.0554 36.6111 75.5636 37.4142C75.0718 38.2172 74.3947 38.8503 73.5392 39.3069C72.6836 39.7634 71.7169 39.9933 70.6423 39.9933ZM70.6423 37.974C71.252 37.974 71.8044 37.834 72.2962 37.5574C72.788 37.2809 73.1754 36.891 73.455 36.3945C73.7345 35.898 73.876 35.3315 73.876 34.6984C73.876 34.0653 73.7345 33.4988 73.455 33.0023C73.1754 32.5058 72.788 32.1193 72.2962 31.8393C71.8044 31.5628 71.252 31.4228 70.6423 31.4228C70.0327 31.4228 69.4802 31.5628 68.9884 31.8393C68.4967 32.1159 68.1093 32.5058 67.8297 33.0023C67.5501 33.4988 67.4087 34.0653 67.4087 34.6984C67.4087 35.3315 67.5501 35.898 67.8297 36.3945C68.1093 36.891 68.4967 37.2775 68.9884 37.5574C69.4802 37.834 70.0327 37.974 70.6423 37.974ZM87.5652 39.8167L87.5517 33.6887L84.5067 38.7337H83.4423L80.3972 33.8054V39.8134H78.1505V29.5768H80.1311L84.0048 35.938L87.8178 29.5768H89.7984L89.8119 39.8134H87.5652V39.8167ZM99.3883 37.6241H94.5849L93.6687 39.8167H91.2132L95.8245 29.5801H98.1891L102.817 39.8167H100.304L99.3883 37.6241ZM98.6338 35.8247L96.9933 31.906L95.3529 35.8247H98.6338ZM111.582 31.5128H108.271V39.8167H105.906V31.5128H102.608V29.5834H111.579V31.5128H111.582ZM113.091 29.5834H115.469V36.2512L120.407 29.5834H122.654V39.82H120.289V33.1656L115.351 39.82H113.091V29.5834ZM129.232 35.6947H127.578V39.8167H125.2V29.5801H127.578V33.7187H129.293L132.011 29.5801H134.538L131.152 34.5218L134.642 39.8167H131.924L129.232 35.6947ZM142.564 37.6241H137.761L136.845 39.8167H134.389L139.001 29.5801H141.365L145.993 39.8167H143.481L142.564 37.6241ZM141.81 35.8247L140.17 31.906L138.529 35.8247H141.81Z" fill="white" style="fill:white;fill-opacity:1;"/>
</g>
<defs>
<clipPath id="clip0_9514_100">
<rect width="146" height="40" fill="white" style="fill:white;fill-opacity:1;"/>
</clipPath>
</defs>
</svg>
