<svg width="160" height="44" viewBox="0 0 160 44" fill="none" xmlns="http://www.w3.org/2000/svg">
<g clip-path="url(#clip0_9500_1683)">
<path d="M44.8319 21.6662C45.4538 21.824 46.0096 22.173 46.4196 22.6634C46.7974 23.1506 46.992 23.7536 46.9698 24.3681C46.989 24.8202 46.8948 25.2699 46.6956 25.6769C46.4965 26.0838 46.1986 26.4353 45.8288 26.6997C45.0682 27.2569 43.9802 27.5356 42.5648 27.5356H36.9746V16.2734H42.2583C43.5728 16.2734 44.5981 16.5264 45.3341 17.0323C45.6902 17.2664 45.9793 17.5878 46.1733 17.9655C46.3674 18.3432 46.4599 18.7643 46.4418 19.188C46.4518 19.7075 46.3052 20.2182 46.0208 20.6544C45.7239 21.0899 45.3146 21.4381 44.8356 21.6625L44.8319 21.6662ZM39.5814 20.933H42.0294C42.4881 20.9658 42.9446 20.8444 43.3254 20.5884C43.4652 20.4578 43.5767 20.3002 43.6528 20.1252C43.729 19.9502 43.7683 19.7617 43.7683 19.5711C43.7683 19.3805 43.729 19.1919 43.6528 19.0169C43.5767 18.842 43.4652 18.6843 43.3254 18.5537C42.9507 18.2889 42.4959 18.1595 42.0368 18.1871H39.5814V20.922V20.933ZM42.4614 25.6072C43.6922 25.6072 44.3076 25.1245 44.3076 24.1591C44.3076 23.1937 43.6922 22.7269 42.4614 22.7587H39.5814V25.6072H42.4614ZM57.8178 25.4459V27.5356H49.0449V16.2734H57.6V18.3668H51.6553V20.812H56.9206V22.8393H51.6553V25.4459H57.8178ZM70.3422 16.2808V27.5356H67.7207V22.92H62.5514V27.5356H59.9262V16.2734H62.5514V20.7167H67.7207V16.2734L70.3422 16.2808ZM81.8476 18.4071H78.218V27.5356H75.6334V18.3997H72.0186V16.2734H81.855V18.3997L81.8476 18.4071Z" fill="#0592C3" style="fill:#0592C3;fill:color(display-p3 0.0196 0.5725 0.7647);fill-opacity:1;"/>
<path d="M44.6547 41.3933H39.3894L38.3998 43.8056H35.6934L40.7482 32.5435H43.3328L48.4024 43.8056H45.6479L44.6436 41.3933H44.6547ZM43.8276 39.4137L42.0294 35.1024L40.246 39.4137H43.8276ZM57.7772 37.9472C58.3983 38.1069 58.9536 38.4556 59.3649 38.9444C59.7435 39.4329 59.9392 40.0368 59.9188 40.6528C59.9379 41.1052 59.8433 41.5553 59.6435 41.9623C59.4436 42.3694 59.1449 42.7206 58.7742 42.9844C58.0135 43.5416 56.9255 43.8203 55.5101 43.8203H49.9199V32.5435H55.2037C56.5218 32.5435 57.5446 32.7964 58.2794 33.3023C58.6355 33.5364 58.9246 33.8579 59.1187 34.2356C59.3128 34.6133 59.4052 35.0344 59.3871 35.458C59.3971 35.9775 59.2505 36.4882 58.9662 36.9244C58.6715 37.361 58.2615 37.7086 57.7809 37.9289L57.7772 37.9472ZM52.5304 37.214H54.9747C55.4333 37.2451 55.8892 37.1239 56.2707 36.8694C56.4106 36.7388 56.522 36.5812 56.5981 36.4062C56.6743 36.2313 56.7136 36.0427 56.7136 35.8521C56.7136 35.6615 56.6743 35.4729 56.5981 35.2979C56.522 35.123 56.4106 34.9654 56.2707 34.8348C55.8962 34.5697 55.4413 34.4402 54.9821 34.4682H52.5378V37.203L52.5304 37.214ZM55.4141 41.8773C56.6449 41.8773 57.2603 41.3958 57.2603 40.4328C57.2603 39.4699 56.6449 39.0031 55.4141 39.0324H52.5304V41.8773H55.4141ZM70.4973 34.6735H66.8678V43.8093H64.2831V34.6698H60.6646V32.5435H70.4973V34.6698V34.6735ZM77.3983 43.9926C76.2923 44.0166 75.1979 43.7645 74.2155 43.2594C73.2979 42.7812 72.5312 42.0606 72.0001 41.177C71.4723 40.2671 71.1945 39.2355 71.1945 38.1855C71.1945 37.1355 71.4723 36.1039 72.0001 35.194C72.5323 34.3113 73.2987 33.591 74.2155 33.1117C75.2004 32.6146 76.2897 32.3555 77.3946 32.3555C78.4995 32.3555 79.5888 32.6146 80.5737 33.1117C81.4999 33.6004 82.2746 34.3301 82.8149 35.2226C83.3552 36.1151 83.6407 37.1369 83.6407 38.1782C83.6407 39.2195 83.3552 40.2413 82.8149 41.1338C82.2746 42.0263 81.4999 42.756 80.5737 43.2447C79.5968 43.76 78.5043 44.021 77.3983 44.0036V43.9926ZM77.3983 41.7709C78.0339 41.7796 78.6606 41.6215 79.2149 41.3127C79.7494 41.0111 80.189 40.5681 80.4851 40.0332C80.7903 39.4568 80.9504 38.8156 80.9517 38.1644C80.953 37.5132 80.7954 36.8714 80.4925 36.2938C80.1964 35.7589 79.7567 35.316 79.2223 35.0144C78.6654 34.7137 78.0415 34.5562 77.4075 34.5562C76.7736 34.5562 76.1497 34.7137 75.5927 35.0144C75.0555 35.3161 74.6123 35.7587 74.3115 36.2938C74.0087 36.8699 73.8505 37.5101 73.8505 38.1599C73.8505 38.8097 74.0087 39.4498 74.3115 40.0259C74.6086 40.5613 75.0496 41.0043 75.5854 41.3053C76.1386 41.6137 76.7639 41.7718 77.3983 41.7636V41.7709ZM95.9523 43.7983L95.9338 37.0564L92.6107 42.6068H91.4439L88.1208 37.1884V43.7873H85.6581V32.5435H87.8291L92.0716 39.542L96.2514 32.5435H98.4225L98.4409 43.8056L95.9523 43.7983ZM108.912 41.386H103.647L102.646 43.8056H99.9585L105.01 32.5435H107.594L112.664 43.8056H109.909L108.923 41.3933L108.912 41.386ZM108.085 39.4063L106.287 35.0951L104.493 39.4137L108.085 39.4063ZM122.279 34.6625H118.653V43.7983H116.068V34.6698H112.457V32.5435H122.29V34.6698L122.279 34.6625ZM123.933 32.5361H126.543V39.8683L131.953 32.5361H134.401V43.7983H131.816V36.4662L126.403 43.7983H123.925V32.5435L123.933 32.5361ZM141.626 39.2634H139.81V43.7983H137.203V32.5435H139.81V37.0967H141.689L144.673 32.5435H147.442L143.731 37.9839L147.556 43.8056H144.573L141.619 39.2707L141.626 39.2634ZM156.241 41.386H150.975L149.971 43.7983H147.279L152.334 32.5361H154.919L159.988 43.7983H157.234L156.23 41.386H156.241ZM155.414 39.4063L153.601 35.1024L151.803 39.4137L155.414 39.4063Z" fill="white" style="fill:white;fill-opacity:1;"/>
<path d="M33.0723 12.6809L37.1781 8.64823C40.4274 5.45509 37.6618 0 37.6618 0L33.5597 4.03266C33.5597 4.03266 36.3215 9.48775 33.0723 12.6809Z" fill="#A1DAF8" style="fill:#A1DAF8;fill:color(display-p3 0.6314 0.8549 0.9725);fill-opacity:1;"/>
<path d="M30.3625 15.343L33.0726 12.6814C36.3219 9.48829 33.56 4.0332 33.56 4.0332L30.8499 6.69476C27.6006 9.89889 30.3625 15.343 30.3625 15.343Z" fill="#62BEE7" style="fill:#62BEE7;fill:color(display-p3 0.3843 0.7451 0.9059);fill-opacity:1;"/>
<path d="M30.3621 15.3426C30.3621 15.3426 27.6003 9.89847 30.8495 6.69434L26.7473 10.727C23.4981 13.9201 26.2599 19.3789 26.2599 19.3789L30.3621 15.3426Z" fill="#0592C3" style="fill:#0592C3;fill:color(display-p3 0.0196 0.5725 0.7647);fill-opacity:1;"/>
<path d="M22.6816 30.6006L24.1253 36.1547C25.2737 40.5539 31.4103 40.9205 31.4103 40.9205L29.9666 35.3701C29.9666 35.3701 23.8263 34.9962 22.6816 30.6006Z" fill="#A1DAF8" style="fill:#A1DAF8;fill:color(display-p3 0.6314 0.8549 0.9725);fill-opacity:1;"/>
<path d="M21.7256 26.9385L22.6819 30.6045C23.8265 35.0038 29.9669 35.3704 29.9669 35.3704L29.0106 31.7043C27.8659 27.3124 21.7256 26.9385 21.7256 26.9385Z" fill="#62BEE7" style="fill:#62BEE7;fill:color(display-p3 0.3843 0.7451 0.9059);fill-opacity:1;"/>
<path d="M21.7257 26.9383C21.7257 26.9383 27.8661 27.305 29.0107 31.7042L27.5633 26.1575C26.4187 21.7582 20.2783 21.3916 20.2783 21.3916L21.7257 26.9383Z" fill="#0592C3" style="fill:#0592C3;fill:color(display-p3 0.0196 0.5725 0.7647);fill-opacity:1;"/>
<path d="M13.3589 12.6183L7.79083 11.1005C3.38218 9.89807 0 14.9976 0 14.9976L5.56804 16.5153C5.56804 16.5153 8.95022 11.4158 13.3589 12.6183Z" fill="#A1DAF8" style="fill:#A1DAF8;fill:color(display-p3 0.6314 0.8549 0.9725);fill-opacity:1;"/>
<path d="M17.0369 13.6199L13.3445 12.6191C8.93589 11.4166 5.55371 16.5161 5.55371 16.5161L9.24605 17.5206C13.6621 18.7194 17.0369 13.6199 17.0369 13.6199Z" fill="#62BEE7" style="fill:#62BEE7;fill:color(display-p3 0.3843 0.7451 0.9059);fill-opacity:1;"/>
<path d="M17.0361 13.6191C17.0361 13.6191 13.6613 18.7186 9.23047 17.5198L14.8022 19.0376C19.2109 20.24 22.593 15.1369 22.593 15.1369L17.0361 13.6191Z" fill="#0592C3" style="fill:#0592C3;fill:color(display-p3 0.0196 0.5725 0.7647);fill-opacity:1;"/>
</g>
<defs>
<clipPath id="clip0_9500_1683">
<rect width="160" height="44" fill="white" style="fill:white;fill-opacity:1;"/>
</clipPath>
</defs>
</svg>
