<svg width="40" height="42" viewBox="0 0 40 42" fill="none" xmlns="http://www.w3.org/2000/svg">
<path d="M23.2402 30.058H16.7925L15.0164 6.07653C14.9604 5.30092 15.0483 4.5207 15.2746 3.78525C15.5009 3.04981 15.8606 2.37514 16.3309 1.80397C16.8012 1.23279 17.3719 0.777538 18.007 0.467022C18.642 0.156506 19.3274 -0.00251126 20.02 3.38906e-05C20.7107 0.000855502 21.3938 0.162353 22.0262 0.474358C22.6586 0.786364 23.2267 1.24212 23.6947 1.81293C24.1627 2.38373 24.5205 3.05723 24.7454 3.79101C24.9704 4.52479 25.0577 5.30297 25.0019 6.07653L23.2402 30.058Z" fill="#FD5D5D"/>
<path d="M20.0199 41.3024C21.8781 41.3024 23.3845 39.6097 23.3845 37.5218C23.3845 35.4338 21.8781 33.7412 20.0199 33.7412C18.1617 33.7412 16.6553 35.4338 16.6553 37.5218C16.6553 39.6097 18.1617 41.3024 20.0199 41.3024Z" fill="#FD5D5D"/>
</svg>
