<svg width="32" height="32" viewBox="0 0 32 32" fill="none" xmlns="http://www.w3.org/2000/svg">
<g clip-path="url(#clip0_953_57911)">
<path d="M15.9995 21.9297C15.1049 21.9297 14.355 22.6796 14.355 23.5742C14.355 24.4688 15.1049 25.2187 15.9995 25.2187C16.8612 25.2187 17.644 24.4688 17.6046 23.6137C17.644 22.673 16.9007 21.9297 15.9995 21.9297Z" fill="#FD5D5D" style="fill:#FD5D5D;fill:color(display-p3 0.9904 0.3666 0.3666);fill-opacity:1;"/>
<path d="M31.2213 27.7578C32.2541 25.9751 32.2607 23.8504 31.2345 22.0743L20.9332 4.23452C19.9136 2.4387 18.0717 1.37305 16.0062 1.37305C13.9407 1.37305 12.0988 2.44528 11.0792 4.22794L0.764735 22.0875C-0.261448 23.8833 -0.25487 26.0212 0.784469 27.8038C1.81065 29.5668 3.64594 30.6258 5.69831 30.6258H26.2746C28.3335 30.6258 30.182 29.5536 31.2213 27.7578ZM28.9848 26.4685C28.4125 27.4552 27.3994 28.0406 26.268 28.0406H5.69173C4.57345 28.0406 3.567 27.4683 3.00787 26.5014C2.44215 25.5212 2.43557 24.3503 3.00129 23.3636L13.3157 5.51067C13.8749 4.53053 14.8747 3.95166 16.0062 3.95166C17.131 3.95166 18.1375 4.53711 18.6966 5.51725L29.0045 23.3702C29.5571 24.3306 29.5505 25.4883 28.9848 26.4685Z" fill="#FD5D5D" style="fill:#FD5D5D;fill:color(display-p3 0.9904 0.3666 0.3666);fill-opacity:1;"/>
<path d="M15.5918 10.3843C14.809 10.608 14.3223 11.3184 14.3223 12.1801C14.3617 12.6998 14.3946 13.2261 14.4341 13.7457C14.5459 15.7257 14.6577 17.6663 14.7696 19.6463C14.809 20.3172 15.3287 20.804 15.9997 20.804C16.6706 20.804 17.1969 20.2844 17.2298 19.6068C17.2298 19.199 17.2298 18.824 17.2693 18.4096C17.3416 17.14 17.4205 15.8704 17.4929 14.6009C17.5324 13.7786 17.6047 12.9564 17.6442 12.1341C17.6442 11.8381 17.6047 11.575 17.4929 11.3118C17.1574 10.5751 16.3746 10.2001 15.5918 10.3843Z" fill="#FD5D5D" style="fill:#FD5D5D;fill:color(display-p3 0.9904 0.3666 0.3666);fill-opacity:1;"/>
</g>
<defs>
<clipPath id="clip0_953_57911">
<rect width="32" height="32" fill="white" style="fill:white;fill-opacity:1;"/>
</clipPath>
</defs>
</svg>
