<svg width="25" height="25" viewBox="0 0 25 25" fill="none" xmlns="http://www.w3.org/2000/svg">
<path fill-rule="evenodd" clip-rule="evenodd" d="M17.566 21.501H7.434C6.366 21.501 5.5 20.635 5.5 19.567V5.43595C5.5 4.36795 6.366 3.50195 7.434 3.50195H17.565C18.634 3.50195 19.5 4.36795 19.5 5.43595V19.566C19.5 20.635 18.634 21.501 17.566 21.501V21.501Z" stroke="white" style="stroke:white;stroke-opacity:1;" stroke-width="1.5" stroke-linecap="round" stroke-linejoin="round"/>
<path d="M19.5 8.5H5.5" stroke="white" style="stroke:white;stroke-opacity:1;" stroke-width="1.5" stroke-linecap="round" stroke-linejoin="round"/>
<path d="M8.50195 15.448C8.52995 15.448 8.55195 15.47 8.55195 15.498C8.55195 15.526 8.52995 15.548 8.50195 15.548C8.47395 15.548 8.45195 15.526 8.45195 15.498C8.45195 15.471 8.47395 15.448 8.50195 15.448" stroke="white" style="stroke:white;stroke-opacity:1;" stroke-width="1.5" stroke-linecap="round" stroke-linejoin="round"/>
<path d="M12.501 15.452C12.529 15.452 12.551 15.474 12.551 15.502C12.551 15.53 12.529 15.552 12.501 15.552C12.473 15.552 12.451 15.53 12.451 15.502C12.45 15.474 12.473 15.452 12.501 15.452" stroke="white" style="stroke:white;stroke-opacity:1;" stroke-width="1.5" stroke-linecap="round" stroke-linejoin="round"/>
<path d="M16.502 15.448C16.53 15.448 16.552 15.47 16.552 15.498C16.552 15.526 16.53 15.548 16.502 15.548C16.474 15.548 16.452 15.526 16.452 15.498C16.452 15.471 16.474 15.448 16.502 15.448" stroke="white" style="stroke:white;stroke-opacity:1;" stroke-width="1.5" stroke-linecap="round" stroke-linejoin="round"/>
<path d="M8.50195 12.448C8.52995 12.448 8.55195 12.47 8.55195 12.498C8.55195 12.526 8.52995 12.548 8.50195 12.548C8.47395 12.548 8.45195 12.526 8.45195 12.498C8.45195 12.471 8.47395 12.448 8.50195 12.448" stroke="white" style="stroke:white;stroke-opacity:1;" stroke-width="1.5" stroke-linecap="round" stroke-linejoin="round"/>
<path d="M12.501 12.452C12.529 12.452 12.551 12.474 12.551 12.502C12.551 12.53 12.529 12.552 12.501 12.552C12.473 12.552 12.451 12.53 12.451 12.502C12.45 12.474 12.473 12.452 12.501 12.452" stroke="white" style="stroke:white;stroke-opacity:1;" stroke-width="1.5" stroke-linecap="round" stroke-linejoin="round"/>
<path d="M16.502 12.448C16.53 12.448 16.552 12.47 16.552 12.498C16.552 12.526 16.53 12.548 16.502 12.548C16.474 12.548 16.452 12.526 16.452 12.498C16.452 12.471 16.474 12.448 16.502 12.448" stroke="white" style="stroke:white;stroke-opacity:1;" stroke-width="1.5" stroke-linecap="round" stroke-linejoin="round"/>
<path d="M8.50195 18.448C8.52995 18.448 8.55195 18.47 8.55195 18.498C8.55195 18.526 8.52995 18.548 8.50195 18.548C8.47395 18.548 8.45195 18.526 8.45195 18.498C8.45195 18.471 8.47395 18.448 8.50195 18.448" stroke="white" style="stroke:white;stroke-opacity:1;" stroke-width="1.5" stroke-linecap="round" stroke-linejoin="round"/>
<path d="M12.501 18.452C12.529 18.452 12.551 18.474 12.551 18.502C12.551 18.53 12.529 18.552 12.501 18.552C12.473 18.552 12.451 18.53 12.451 18.502C12.45 18.474 12.473 18.452 12.501 18.452" stroke="white" style="stroke:white;stroke-opacity:1;" stroke-width="1.5" stroke-linecap="round" stroke-linejoin="round"/>
<path d="M16.502 18.448C16.53 18.448 16.552 18.47 16.552 18.498C16.552 18.526 16.53 18.548 16.502 18.548C16.474 18.548 16.452 18.526 16.452 18.498C16.452 18.471 16.474 18.448 16.502 18.448" stroke="white" style="stroke:white;stroke-opacity:1;" stroke-width="1.5" stroke-linecap="round" stroke-linejoin="round"/>
</svg>
