<svg width="32" height="32" viewBox="0 0 32 32" fill="none" xmlns="http://www.w3.org/2000/svg">
<g clip-path="url(#clip0_1139_108792)">
<path d="M24.9876 11.7601C25.374 11.7601 25.747 11.819 26.0981 11.928L29.2969 8.72916L27.806 7.23828L23.2842 11.7601H24.9876Z" fill="#78859F" style="fill:#78859F;fill:color(display-p3 0.4718 0.5201 0.6250);fill-opacity:1;"/>
<path d="M31.451 10.8827L30.6229 10.0547L27.7261 12.9516C28.3529 13.6221 28.7378 14.5216 28.7378 15.5098V16.2474L31.451 13.5343C32.1832 12.8021 32.1832 11.6149 31.451 10.8827Z" fill="#78859F" style="fill:#78859F;fill:color(display-p3 0.4718 0.5201 0.6250);fill-opacity:1;"/>
<path d="M26.4804 5.91281L21.1168 0.549187C20.3845 -0.183062 19.1973 -0.183062 18.4652 0.549187L7.25391 11.7604H20.6328L26.4804 5.91281Z" fill="#78859F" style="fill:#78859F;fill:color(display-p3 0.4718 0.5201 0.6250);fill-opacity:1;"/>
<path d="M4.9209 19.5781H7.77727V21.6865H4.9209V19.5781Z" fill="#78859F" style="fill:#78859F;fill:color(display-p3 0.4718 0.5201 0.6250);fill-opacity:1;"/>
<path d="M24.9877 13.6348H1.875C0.839437 13.6348 0 14.4742 0 15.5098V30.1243C0 31.1599 0.839437 31.9993 1.875 31.9993H24.9877C26.0232 31.9993 26.8627 31.1599 26.8627 30.1243V15.5098C26.8627 14.4742 26.0232 13.6348 24.9877 13.6348ZM3.04588 17.7033H9.65225V23.5617H3.04588V17.7033ZM8.71475 27.9307H2.98756V26.0557H8.71475V27.9307ZM14.4421 27.9307H8.71475V26.0557H14.4421V27.9307ZM20.1693 27.9307H14.4421V26.0557H20.1693V27.9307ZM23.8752 27.9307H20.1693V26.0557H23.8752V27.9307Z" fill="#78859F" style="fill:#78859F;fill:color(display-p3 0.4718 0.5201 0.6250);fill-opacity:1;"/>
</g>
<defs>
<clipPath id="clip0_1139_108792">
<rect width="32" height="32" fill="white" style="fill:white;fill-opacity:1;"/>
</clipPath>
</defs>
</svg>
