<svg width="32" height="32" viewBox="0 0 32 32" fill="none" xmlns="http://www.w3.org/2000/svg">
<path d="M7.95889 8.83398L7.06956 4.83398H4.49756" stroke="white" style="stroke:white;stroke-opacity:1;" stroke-width="1.5" stroke-linecap="round" stroke-linejoin="round"/>
<path fill-rule="evenodd" clip-rule="evenodd" d="M10.3078 19.7807L7.9585 8.83398H24.8358C25.6852 8.83398 26.3172 9.61665 26.1398 10.4473L24.1372 19.7807C24.0052 20.3953 23.4625 20.834 22.8332 20.834H11.6105C10.9825 20.834 10.4398 20.3953 10.3078 19.7807Z" stroke="white" style="stroke:white;stroke-opacity:1;" stroke-width="1.5" stroke-linecap="round" stroke-linejoin="round"/>
<path d="M23.2866 25.6667C23.0106 25.6667 22.7866 25.8907 22.7892 26.1667C22.7892 26.4427 23.0132 26.6667 23.2892 26.6667C23.5652 26.6667 23.7892 26.4427 23.7892 26.1667C23.7879 25.8907 23.5639 25.6667 23.2866 25.6667" stroke="white" style="stroke:white;stroke-opacity:1;" stroke-width="1.5" stroke-linecap="round" stroke-linejoin="round"/>
<path d="M11.8082 25.6667C11.5322 25.6667 11.3082 25.8907 11.3109 26.1667C11.3096 26.4427 11.5336 26.6667 11.8096 26.6667C12.0856 26.6667 12.3096 26.4427 12.3096 26.1667C12.3096 25.8907 12.0856 25.6667 11.8082 25.6667" stroke="white" style="stroke:white;stroke-opacity:1;" stroke-width="1.5" stroke-linecap="round" stroke-linejoin="round"/>
</svg>
