<svg width="32" height="32" viewBox="0 0 32 32" fill="none" xmlns="http://www.w3.org/2000/svg">
<path fill-rule="evenodd" clip-rule="evenodd" d="M19 16.5742V31.0002L30.502 23.8652C30.81 23.6862 31 23.3562 31 23.0002V9.57422L19 16.5742Z" fill="#78859F" style="fill:#78859F;fill:color(display-p3 0.4718 0.5201 0.6250);fill-opacity:1;"/>
<path fill-rule="evenodd" clip-rule="evenodd" d="M30 7.84175L18 14.8418L14.056 12.5408L25.357 5.13375L30 7.84175ZM6 7.84175L12.125 11.4148L23.427 4.00775L18.504 1.13575C18.193 0.95475 17.807 0.95475 17.496 1.13575L6 7.84175Z" fill="#78859F" style="fill:#78859F;fill:color(display-p3 0.4718 0.5201 0.6250);fill-opacity:1;"/>
<path fill-rule="evenodd" clip-rule="evenodd" d="M5 16.0002V9.57422L17 16.5742V31.0002L8.94 26.0002H11C11.552 26.0002 12 25.5522 12 25.0002C12 24.4482 11.552 24.0002 11 24.0002H1.716L1.498 23.8652C1.19 23.6862 1 23.3562 1 23.0002V22.0002H14C14.552 22.0002 15 21.5522 15 21.0002C15 20.4482 14.552 20.0002 14 20.0002H1V18.0002H11C11.552 18.0002 12 17.5522 12 17.0002C12 16.4482 11.552 16.0002 11 16.0002H5Z" fill="#78859F" style="fill:#78859F;fill:color(display-p3 0.4718 0.5201 0.6250);fill-opacity:1;"/>
</svg>
