<svg width="98" height="98" viewBox="0 0 98 98" fill="none" xmlns="http://www.w3.org/2000/svg">
<path d="M49 98C76.062 98 98 76.062 98 49C98 21.938 76.062 0 49 0C21.938 0 0 21.938 0 49C0 76.062 21.938 98 49 98Z" fill="white" style="fill:white;fill-opacity:1;"/>
<path d="M43.87 35H40.13C38.9536 35 38 35.9536 38 37.13V60.87C38 62.0464 38.9536 63 40.13 63H43.87C45.0464 63 46 62.0464 46 60.87V37.13C46 35.9536 45.0464 35 43.87 35Z" fill="#3B8BEA" style="fill:#3B8BEA;fill:color(display-p3 0.2314 0.5451 0.9176);fill-opacity:1;"/>
<path d="M57.87 35H54.13C52.9536 35 52 35.9536 52 37.13V60.87C52 62.0464 52.9536 63 54.13 63H57.87C59.0464 63 60 62.0464 60 60.87V37.13C60 35.9536 59.0464 35 57.87 35Z" fill="#3B8BEA" style="fill:#3B8BEA;fill:color(display-p3 0.2314 0.5451 0.9176);fill-opacity:1;"/>
</svg>
