<svg width="18" height="25" viewBox="0 0 18 25" fill="none" xmlns="http://www.w3.org/2000/svg">
<path fill-rule="evenodd" clip-rule="evenodd" d="M3.12443 0.5H11.1484L17.949 7.58846V21.3756C17.949 23.1027 16.5517 24.5 14.8306 24.5H3.12443C1.3973 24.5 4.93555e-10 23.1027 4.93555e-10 21.3756V3.62443C-3.03234e-05 1.8973 1.39727 0.5 3.12443 0.5Z" fill="#F94D4D" style="fill:#F94D4D;fill:color(display-p3 0.9779 0.3028 0.3028);fill-opacity:1;"/>
<path opacity="0.302" fill-rule="evenodd" clip-rule="evenodd" d="M11.1425 0.5V7.53448H17.9491L11.1425 0.5Z" fill="white" style="fill:white;fill-opacity:1;"/>
<path d="M3.47229 18.4072V14.0234H5.33736C5.79914 14.0234 6.16496 14.1494 6.44082 14.4072C6.71668 14.6591 6.85462 15.001 6.85462 15.4267C6.85462 15.8525 6.71668 16.1944 6.44082 16.4462C6.16496 16.7041 5.79914 16.83 5.33736 16.83H4.59373V18.4072H3.47229ZM4.59373 15.8765H5.21143C5.37933 15.8765 5.51127 15.8405 5.60124 15.7566C5.69118 15.6786 5.73919 15.5707 5.73919 15.4268C5.73919 15.2829 5.69121 15.1749 5.60124 15.0969C5.5113 15.013 5.37936 14.977 5.21143 14.977H4.59373V15.8765ZM7.31636 18.4072V14.0234H8.86959C9.17543 14.0234 9.4633 14.0654 9.73315 14.1554C10.003 14.2453 10.2489 14.3713 10.4648 14.5452C10.6807 14.7131 10.8546 14.941 10.9805 15.2288C11.1005 15.5167 11.1664 15.8465 11.1664 16.2183C11.1664 16.5842 11.1005 16.914 10.9805 17.2018C10.8546 17.4897 10.6807 17.7176 10.4648 17.8855C10.2489 18.0594 10.003 18.1853 9.73315 18.2753C9.4633 18.3652 9.17543 18.4072 8.86959 18.4072H7.31636ZM8.41382 17.4537H8.73765C8.91156 17.4537 9.07348 17.4358 9.22341 17.3938C9.36732 17.3518 9.50527 17.2858 9.63721 17.1959C9.76314 17.1059 9.86509 16.98 9.93705 16.8121C10.009 16.6442 10.045 16.4462 10.045 16.2183C10.045 15.9845 10.009 15.7866 9.93705 15.6187C9.86509 15.4508 9.76314 15.3248 9.63721 15.2348C9.50527 15.1449 9.36735 15.0789 9.22341 15.037C9.07348 14.995 8.91156 14.977 8.73765 14.977H8.41382V17.4537ZM11.7302 18.4072V14.0234H14.8486V14.977H12.8516V15.6786H14.4468V16.6261H12.8516V18.4072H11.7302Z" fill="white" style="fill:white;fill-opacity:1;"/>
</svg>
