<svg width="18" height="19" viewBox="0 0 18 19" fill="none" xmlns="http://www.w3.org/2000/svg">
<path fill-rule="evenodd" clip-rule="evenodd" d="M7.53615 10.9017C6.65865 10.0242 5.99715 9.04173 5.55765 8.04498C5.46465 7.83423 5.5194 7.58748 5.68215 7.42473L6.2964 6.81048C6.79965 6.30723 6.79965 5.59548 6.36015 5.15598L5.47965 4.27623C4.8939 3.69048 3.9444 3.69048 3.35865 4.27623L2.86965 4.76448C2.3139 5.32023 2.08215 6.12198 2.23215 6.91698C2.60265 8.87673 3.74115 11.0225 5.5779 12.8592C7.41465 14.696 9.5604 15.8345 11.5202 16.205C12.3152 16.355 13.1169 16.1232 13.6727 15.5675L14.1609 15.0792C14.7467 14.4935 14.7467 13.544 14.1609 12.9582L13.2812 12.0785C12.8417 11.639 12.1292 11.639 11.6904 12.0785L11.0132 12.7565C10.8504 12.9192 10.6037 12.974 10.3929 12.881C9.39615 12.4407 8.41365 11.7785 7.53615 10.9017Z" stroke="white" style="stroke:white;stroke-opacity:1;" stroke-width="1.5" stroke-linecap="round" stroke-linejoin="round"/>
<path d="M9.68994 4.37707V2.62207" stroke="white" style="stroke:white;stroke-opacity:1;" stroke-width="1.5" stroke-linecap="round" stroke-linejoin="round"/>
<path d="M12.8179 5.61477L14.0554 4.38477" stroke="white" style="stroke:white;stroke-opacity:1;" stroke-width="1.5" stroke-linecap="round" stroke-linejoin="round"/>
<path d="M14.0625 8.75H15.81" stroke="white" style="stroke:white;stroke-opacity:1;" stroke-width="1.5" stroke-linecap="round" stroke-linejoin="round"/>
</svg>
