<svg width="19" height="18" viewBox="0 0 19 18" fill="none" xmlns="http://www.w3.org/2000/svg">
<path d="M9.125 16.5C7.975 16.5 7 16.1 6.2 15.3C5.4 14.5 5 13.525 5 12.375V4.5C5 3.675 5.29375 2.96875 5.88125 2.38125C6.46875 1.79375 7.175 1.5 8 1.5C8.825 1.5 9.53125 1.79375 10.1188 2.38125C10.7063 2.96875 11 3.675 11 4.5V11.625C11 12.15 10.8187 12.5938 10.4563 12.9563C10.0938 13.3188 9.65 13.5 9.125 13.5C8.6 13.5 8.15625 13.3188 7.79375 12.9563C7.43125 12.5938 7.25 12.15 7.25 11.625V4.5H8.375V11.625C8.375 11.8375 8.44687 12.0156 8.59062 12.1594C8.73438 12.3031 8.9125 12.375 9.125 12.375C9.3375 12.375 9.51562 12.3031 9.65938 12.1594C9.80312 12.0156 9.875 11.8375 9.875 11.625V4.5C9.875 3.975 9.69375 3.53125 9.33125 3.16875C8.96875 2.80625 8.525 2.625 8 2.625C7.475 2.625 7.03125 2.80625 6.66875 3.16875C6.30625 3.53125 6.125 3.975 6.125 4.5V12.375C6.125 13.2 6.41875 13.9063 7.00625 14.4938C7.59375 15.0813 8.3 15.375 9.125 15.375C9.95 15.375 10.6562 15.0813 11.2437 14.4938C11.8312 13.9063 12.125 13.2 12.125 12.375V4.5H13.25V12.375C13.25 13.525 12.85 14.5 12.05 15.3C11.25 16.1 10.275 16.5 9.125 16.5Z" fill="#3B8BEA" style="fill:#3B8BEA;fill:color(display-p3 0.2314 0.5451 0.9176);fill-opacity:1;"/>
</svg>
