<svg width="24" height="25" viewBox="0 0 24 25" fill="none" xmlns="http://www.w3.org/2000/svg">
<path d="M6.54583 12.9082H11.1413V17.5036C11.1413 17.9707 11.5255 18.3624 12.0001 18.3624C12.4747 18.3624 12.8589 17.9707 12.8589 17.5036V12.9082H17.4543C17.9214 12.9082 18.3131 12.524 18.3131 12.0494C18.3131 11.5748 17.9214 11.1906 17.4543 11.1906H12.8589V6.59515C12.8589 6.12807 12.4747 5.73633 12.0001 5.73633C11.5255 5.73633 11.1413 6.12807 11.1413 6.59515V11.1906H6.54583C6.07875 11.1906 5.68701 11.5748 5.68701 12.0494C5.68701 12.524 6.07875 12.9082 6.54583 12.9082Z" fill="#323338" style="fill:#323338;fill:color(display-p3 0.1961 0.2000 0.2196);fill-opacity:1;"/>
</svg>
