<svg width="31" height="30" viewBox="0 0 31 30" fill="none" xmlns="http://www.w3.org/2000/svg">
<path d="M15.0005 15.6299V15.3712C15.0005 14.5237 15.5243 14.0649 16.0493 13.7124C16.5618 13.3674 17.0755 12.9174 17.0755 12.0874C17.0755 10.9412 16.1468 10.0137 15.0018 10.0137C13.8568 10.0137 12.9268 10.9399 12.9268 12.0862" stroke="#3B8BEA" style="stroke:#3B8BEA;stroke:color(display-p3 0.2314 0.5451 0.9176);stroke-opacity:1;" stroke-width="2" stroke-linecap="round" stroke-linejoin="round"/>
<path d="M14.9997 18.5537C14.896 18.5537 14.8122 18.6375 14.8135 18.7412C14.8135 18.845 14.8972 18.9287 15.001 18.9287C15.1047 18.9287 15.1885 18.845 15.1885 18.7412C15.1885 18.6375 15.1047 18.5537 14.9997 18.5537" stroke="#3B8BEA" style="stroke:#3B8BEA;stroke:color(display-p3 0.2314 0.5451 0.9176);stroke-opacity:1;" stroke-width="2" stroke-linecap="round" stroke-linejoin="round"/>
<path fill-rule="evenodd" clip-rule="evenodd" d="M20.496 24.1452C18.8697 25.0577 16.9972 25.584 15.001 25.584C8.78723 25.584 3.75098 20.5477 3.75098 14.334C3.75098 8.12023 8.78723 3.08398 15.001 3.08398C21.2147 3.08398 26.251 8.12023 26.251 14.334C26.251 16.3315 25.7247 18.204 24.8122 19.829L26.251 25.584L20.496 24.1452Z" stroke="#3B8BEA" style="stroke:#3B8BEA;stroke:color(display-p3 0.2314 0.5451 0.9176);stroke-opacity:1;" stroke-width="2" stroke-linecap="round" stroke-linejoin="round"/>
</svg>
