<svg width="40" height="40" viewBox="0 0 40 40" fill="none" xmlns="http://www.w3.org/2000/svg">
<path d="M31.75 15.9504C32.575 13.8755 33.875 11.8255 35.6125 9.85044C36.1625 9.22544 36.2375 8.32548 35.7875 7.62547C35.4375 7.07548 34.8625 6.77549 34.2375 6.77549C34.0625 6.77549 33.8875 6.78792 33.7125 6.85049C30.0375 7.92547 21.45 11.7379 21.2125 23.963C21.125 28.6754 24.575 32.7254 29.0625 33.1879C31.55 33.4379 34.025 32.6255 35.8625 30.9755C37.7 29.3129 38.75 26.9379 38.75 24.4629C38.75 20.338 35.825 16.7254 31.75 15.9504Z" fill="#3B8BEA" style="fill:#3B8BEA;fill:color(display-p3 0.2314 0.5451 0.9176);fill-opacity:1;"/>
<path d="M9.11205 33.1879C11.5871 33.4379 14.0621 32.6255 15.8995 30.9755C17.7371 29.3129 18.7871 26.9379 18.7871 24.4629C18.7871 20.338 15.8621 16.7255 11.7871 15.9504C12.6121 13.8755 13.9121 11.8255 15.6496 9.85045C16.1996 9.22545 16.2746 8.32549 15.8245 7.62549C15.4746 7.07549 14.8995 6.7755 14.2745 6.7755C14.0996 6.7755 13.9246 6.78794 13.7496 6.8505C10.0746 7.92549 1.48707 11.738 1.24957 23.963V24.1379C1.24957 28.7755 4.66205 32.7254 9.11205 33.1879Z" fill="#3B8BEA" style="fill:#3B8BEA;fill:color(display-p3 0.2314 0.5451 0.9176);fill-opacity:1;"/>
</svg>
