<svg width="24" height="25" viewBox="0 0 24 25" fill="none" xmlns="http://www.w3.org/2000/svg">
<path d="M10.8944 13.606C9.76332 12.475 8.91065 11.2086 8.34413 9.92387C8.22425 9.65223 8.29483 9.33419 8.50461 9.12441L9.29638 8.33366C9.94507 7.68501 9.94507 6.76762 9.37855 6.20114L8.24359 5.06624C7.48856 4.31125 6.26465 4.31125 5.50962 5.06624L4.87929 5.69652C4.16293 6.41284 3.86421 7.44624 4.05756 8.47093C4.53513 10.9969 6.00266 13.7626 8.37023 16.13C10.7378 18.4975 13.5037 19.9649 16.0298 20.4424C17.0546 20.6358 18.088 20.3371 18.8044 19.6208L19.4337 18.9914C20.1888 18.2365 20.1888 17.0126 19.4337 16.2576L18.2997 15.1237C17.7332 14.5572 16.8148 14.5572 16.2493 15.1237L15.3763 15.9976C15.1665 16.2074 14.8484 16.2779 14.5768 16.1581C13.292 15.5906 12.0255 14.737 10.8944 13.606Z" fill="#3B8BEA" style="fill:#3B8BEA;fill:color(display-p3 0.2314 0.5451 0.9176);fill-opacity:1;"/>
</svg>
