<svg width="24" height="24" viewBox="0 0 24 24" fill="none" xmlns="http://www.w3.org/2000/svg">
<path d="M21.988 20.4864C20.8162 15.9313 16.7091 12.75 12.0001 12.75C7.29111 12.75 3.18393 15.9313 2.01219 20.4863C1.79708 21.3224 1.98463 22.2289 2.5138 22.9111C3.04279 23.5929 3.87397 24 4.73732 24H19.2628C20.1384 24 20.9485 23.6031 21.4853 22.911C22.015 22.2283 22.2029 21.3219 21.988 20.4864ZM20.0039 21.7617C19.8248 21.9926 19.5547 22.125 19.2628 22.125H4.73732C4.44913 22.125 4.17177 21.9893 3.99533 21.7618C3.81627 21.531 3.75533 21.2363 3.82808 20.9535C4.78658 17.2274 8.14701 14.625 12.0001 14.625C15.8532 14.625 19.2136 17.2274 20.1721 20.9535C20.2436 21.2316 20.1808 21.5337 20.0039 21.7617ZM12.0001 11.25C15.1017 11.25 17.6251 8.72663 17.6251 5.625C17.6251 2.52338 15.1017 0 12.0001 0C8.89846 0 6.37508 2.52338 6.37508 5.625C6.37508 8.72663 8.89846 11.25 12.0001 11.25ZM12.0001 1.875C14.0678 1.875 15.7501 3.55725 15.7501 5.625C15.7501 7.69275 14.0678 9.375 12.0001 9.375C9.93233 9.375 8.25008 7.69275 8.25008 5.625C8.25008 3.55725 9.93229 1.875 12.0001 1.875Z" fill="#3B8BEA" style="fill:#3B8BEA;fill:color(display-p3 0.2314 0.5451 0.9176);fill-opacity:1;"/>
</svg>
