<svg width="24" height="25" viewBox="0 0 24 25" fill="none" xmlns="http://www.w3.org/2000/svg">
<path d="M6.9207 21.6856C8.42875 22.521 10.1608 23 12.0051 23C17.8028 23 22.5001 18.2926 22.5001 12.4949C22.5001 6.69721 17.8028 2 12.0051 2C6.20745 2 1.5 6.69721 1.5 12.4949C1.5 14.3595 1.98912 16.0917 2.83479 17.6099L1.5 23L6.9207 21.6856ZM7.50151 7.85878C7.746 7.62441 8.10268 7.53272 8.42875 7.60408L8.76493 7.6754C9.1012 7.74667 9.37633 7.97088 9.5088 8.27653L10.1711 9.7438C10.3341 10.1004 10.273 10.5284 10.008 10.8238L9.60044 11.3028C9.46801 11.4556 9.43747 11.6899 9.53933 11.8734C10.7416 14.0335 12.321 14.7365 13.024 14.9504C13.2278 15.0218 13.4622 14.9301 13.5743 14.7466L13.8698 14.2882C14.1551 13.8501 14.7155 13.6972 15.337 14.0029L16.5597 14.6143C17.0284 14.8384 17.2424 15.3886 17.0692 15.8777C16.4477 17.6811 14.8581 17.457 14.8581 17.457C11.3327 17.3653 8.57134 14.1149 7.37923 12.444C6.829 11.6594 6.49277 10.7118 6.59463 9.74379C6.69658 8.78598 7.14491 8.18485 7.50151 7.85878Z" fill="#3B8BEA" style="fill:#3B8BEA;fill:color(display-p3 0.2314 0.5451 0.9176);fill-opacity:1;"/>
</svg>
