<svg width="14" height="14" viewBox="0 0 14 14" fill="none" xmlns="http://www.w3.org/2000/svg">
<path d="M13.1399 3.89054C12.8051 3.15072 12.3245 2.48649 11.7142 1.91407C11.104 1.34705 10.3966 0.898838 9.60816 0.585627C8.79274 0.261615 7.9287 0.0996094 7.03767 0.0996094C6.14664 0.0996094 5.2826 0.261615 4.46717 0.585627C3.67874 0.898838 2.97132 1.34165 2.3611 1.91407C1.75087 2.48649 1.27026 3.15072 0.93545 3.89054C0.589838 4.65737 0.411621 5.4782 0.411621 6.32063C0.411621 7.79488 0.962435 9.20973 1.97227 10.333L1.43225 13.2761L4.30517 11.9962C5.1638 12.3634 6.07643 12.5471 7.03226 12.5471C7.92329 12.5471 8.78733 12.385 9.60276 12.061C10.3912 11.7478 11.0986 11.305 11.7088 10.7326C12.3191 10.1602 12.7997 9.49594 13.1345 8.75612C13.4801 7.98929 13.6583 7.16846 13.6583 6.32603C13.6637 5.4782 13.4855 4.66277 13.1399 3.89054Z" fill="white" style="fill:white;fill-opacity:1;"/>
<path d="M9.72685 7.56315C9.44604 7.42274 9.24085 7.33634 9.09504 7.28234C9.00324 7.24994 8.78722 7.15273 8.71162 7.21214C8.47401 7.40654 8.2202 7.95736 7.95019 8.05997C7.28057 7.93036 6.65955 7.47135 6.17353 7.00153C5.95752 6.79632 5.55791 6.2131 5.47151 6.05649C5.45531 5.89449 5.74691 5.67848 5.81171 5.55428C6.14652 5.17626 5.89272 4.93866 5.84952 4.78205C5.77392 4.62004 5.64432 4.32843 5.53091 4.09082C5.43371 3.93422 5.41209 3.70201 5.23928 3.61561C4.50486 3.23759 4.08366 3.99362 3.91086 4.38784C2.86862 6.89892 9.13283 11.6781 10.4073 8.38398C10.4721 8.09777 10.4451 7.98976 10.3479 7.86016C10.1535 7.72515 9.92665 7.66575 9.72685 7.56315Z" fill="#3B8BEA" style="fill:#3B8BEA;fill:color(display-p3 0.2314 0.5451 0.9176);fill-opacity:1;"/>
</svg>
