<svg width="44" height="44" viewBox="0 0 44 44" fill="none" xmlns="http://www.w3.org/2000/svg">
<path d="M10.1875 30.4375C10.1875 31.3326 10.5431 32.1911 11.176 32.824C11.8089 33.4569 12.6674 33.8125 13.5625 33.8125C14.4576 33.8125 15.3161 33.4569 15.949 32.824C16.5819 32.1911 16.9375 31.3326 16.9375 30.4375C16.9375 29.5424 16.5819 28.684 15.949 28.051C15.3161 27.4181 14.4576 27.0625 13.5625 27.0625C12.6674 27.0625 11.8089 27.4181 11.176 28.051C10.5431 28.684 10.1875 29.5424 10.1875 30.4375Z" stroke="#3B8BEA" style="stroke:#3B8BEA;stroke:color(display-p3 0.2314 0.5451 0.9176);stroke-opacity:1;" stroke-width="2.2" stroke-linecap="round" stroke-linejoin="round"/>
<path d="M27.0625 30.4375C27.0625 31.3326 27.4181 32.1911 28.051 32.824C28.684 33.4569 29.5424 33.8125 30.4375 33.8125C31.3326 33.8125 32.1911 33.4569 32.824 32.824C33.4569 32.1911 33.8125 31.3326 33.8125 30.4375C33.8125 29.5424 33.4569 28.684 32.824 28.051C32.1911 27.4181 31.3326 27.0625 30.4375 27.0625C29.5424 27.0625 28.684 27.4181 28.051 28.051C27.4181 28.684 27.0625 29.5424 27.0625 30.4375Z" stroke="#3B8BEA" style="stroke:#3B8BEA;stroke:color(display-p3 0.2314 0.5451 0.9176);stroke-opacity:1;" stroke-width="2.2" stroke-linecap="round" stroke-linejoin="round"/>
<path d="M10.1875 30.4375H6.8125V23.6875M5.125 10.1875H23.6875V30.4375M16.9375 30.4375H27.0625M33.8125 30.4375H37.1875V20.3125M37.1875 20.3125H23.6875M37.1875 20.3125L32.125 11.875H23.6875" stroke="#3B8BEA" style="stroke:#3B8BEA;stroke:color(display-p3 0.2314 0.5451 0.9176);stroke-opacity:1;" stroke-width="2.2" stroke-linecap="round" stroke-linejoin="round"/>
<path d="M6.8125 16.9375H13.5625" stroke="#3B8BEA" style="stroke:#3B8BEA;stroke:color(display-p3 0.2314 0.5451 0.9176);stroke-opacity:1;" stroke-width="2.2" stroke-linecap="round" stroke-linejoin="round"/>
</svg>
