<svg width="44" height="44" viewBox="0 0 44 44" fill="none" xmlns="http://www.w3.org/2000/svg">
<path d="M15.25 10.1875H11.875C10.9799 10.1875 10.1214 10.5431 9.48851 11.176C8.85558 11.809 8.5 12.6674 8.5 13.5625V33.8125C8.5 34.7076 8.85558 35.5661 9.48851 36.199C10.1214 36.8319 10.9799 37.1875 11.875 37.1875H21.4887" stroke="#3B8BEA" style="stroke:#3B8BEA;stroke:color(display-p3 0.2314 0.5451 0.9176);stroke-opacity:1;" stroke-width="2.2" stroke-linecap="round" stroke-linejoin="round"/>
<path d="M32.125 25.375V32.125H38.875" stroke="#3B8BEA" style="stroke:#3B8BEA;stroke:color(display-p3 0.2314 0.5451 0.9176);stroke-opacity:1;" stroke-width="2.2" stroke-linecap="round" stroke-linejoin="round"/>
<path d="M32.125 20.3125V13.5625C32.125 12.6674 31.7694 11.8089 31.1365 11.176C30.5036 10.5431 29.6451 10.1875 28.75 10.1875H25.375" stroke="#3B8BEA" style="stroke:#3B8BEA;stroke:color(display-p3 0.2314 0.5451 0.9176);stroke-opacity:1;" stroke-width="2.2" stroke-linecap="round" stroke-linejoin="round"/>
<path d="M15.25 10.1875C15.25 9.29239 15.6056 8.43395 16.2385 7.80101C16.8714 7.16808 17.7299 6.8125 18.625 6.8125H22C22.8951 6.8125 23.7536 7.16808 24.3865 7.80101C25.0194 8.43395 25.375 9.29239 25.375 10.1875C25.375 11.0826 25.0194 11.9411 24.3865 12.574C23.7536 13.2069 22.8951 13.5625 22 13.5625H18.625C17.7299 13.5625 16.8714 13.2069 16.2385 12.574C15.6056 11.9411 15.25 11.0826 15.25 10.1875Z" stroke="#3B8BEA" style="stroke:#3B8BEA;stroke:color(display-p3 0.2314 0.5451 0.9176);stroke-opacity:1;" stroke-width="2.2" stroke-linecap="round" stroke-linejoin="round"/>
<path d="M25.375 32.125C25.375 33.9152 26.0862 35.6321 27.352 36.898C28.6179 38.1638 30.3348 38.875 32.125 38.875C33.9152 38.875 35.6321 38.1638 36.898 36.898C38.1638 35.6321 38.875 33.9152 38.875 32.125C38.875 30.3348 38.1638 28.6179 36.898 27.352C35.6321 26.0862 33.9152 25.375 32.125 25.375C30.3348 25.375 28.6179 26.0862 27.352 27.352C26.0862 28.6179 25.375 30.3348 25.375 32.125Z" stroke="#3B8BEA" style="stroke:#3B8BEA;stroke:color(display-p3 0.2314 0.5451 0.9176);stroke-opacity:1;" stroke-width="2.2" stroke-linecap="round" stroke-linejoin="round"/>
<path d="M15.25 20.3125H22" stroke="#3B8BEA" style="stroke:#3B8BEA;stroke:color(display-p3 0.2314 0.5451 0.9176);stroke-opacity:1;" stroke-width="2.2" stroke-linecap="round" stroke-linejoin="round"/>
<path d="M15.25 27.0625H20.3125" stroke="#3B8BEA" style="stroke:#3B8BEA;stroke:color(display-p3 0.2314 0.5451 0.9176);stroke-opacity:1;" stroke-width="2.2" stroke-linecap="round" stroke-linejoin="round"/>
</svg>
