<svg width="32" height="32" viewBox="0 0 32 32" fill="none" xmlns="http://www.w3.org/2000/svg">
<path d="M3.55566 7.40088V13.9409C3.55469 20.8755 7.90332 27.2085 14.3779 29.6987C14.9004 29.8999 15.4502 29.9995 16 29.9995C16.5498 29.9995 17.0996 29.8989 17.623 29.6987L18.5938 29.3247C24.5781 27.0229 28.4453 21.2339 28.4443 14.5776V7.40088C28.4443 6.86377 28.0195 6.42236 27.4834 6.40186C23.8887 6.26221 20.2236 4.84521 16.5898 2.19189C16.2383 1.93604 15.7617 1.93604 15.4102 2.19189C11.7754 4.84521 8.11035 6.26221 4.5166 6.40186C3.98047 6.42236 3.55566 6.86377 3.55566 7.40088ZM5.55566 8.33643C9.04004 8.00732 12.5459 6.62842 16 4.22705C19.4531 6.62842 22.96 8.00732 26.4443 8.33643V14.5776C26.4453 20.3999 23.082 25.4556 17.875 27.4575L16.9053 27.8315C16.3213 28.0562 15.6777 28.0562 15.0957 27.8315C9.38867 25.6362 5.55469 20.0542 5.55566 13.9409V8.33643Z" fill="white" style="fill:white;fill-opacity:1;"/>
<path d="M13.9521 20.1299C14.1396 20.3174 14.3936 20.4229 14.6592 20.4229C14.9248 20.4229 15.1787 20.3174 15.3662 20.1299L21.5859 13.9102C21.9766 13.5195 21.9766 12.8867 21.5859 12.4961C21.1953 12.1055 20.5625 12.1055 20.1719 12.4961L14.6592 18.0088L11.8281 15.1768C11.4375 14.7861 10.8047 14.7861 10.4141 15.1768C10.0234 15.5674 10.0234 16.2002 10.4141 16.5908L13.9521 20.1299Z" fill="white" style="fill:white;fill-opacity:1;"/>
</svg>
