<svg width="33" height="32" viewBox="0 0 33 32" fill="none" xmlns="http://www.w3.org/2000/svg">
<path d="M19.166 4.49414C25.5161 4.49426 30.6727 9.64992 30.6729 16C30.6729 22.3502 25.5162 27.5067 19.166 27.5068C16.4329 27.5068 13.9206 26.5521 11.9453 24.957L11.5576 24.6299C11.232 24.342 11.182 23.857 11.4297 23.5117L11.4834 23.4443C11.7902 23.0964 12.3228 23.0643 12.6699 23.3711L13.001 23.6504C14.687 25.0108 16.832 25.8261 19.166 25.8262C24.5889 25.8261 28.9932 21.423 28.9932 16C28.993 10.5772 24.5888 6.17395 19.166 6.17383C16.8321 6.1739 14.687 6.9894 13.001 8.34961L12.6699 8.62988C12.3445 8.91752 11.8564 8.90643 11.5439 8.61719L11.4834 8.55566C11.1771 8.20885 11.2106 7.67807 11.5576 7.37109L11.9453 7.04395C13.9206 5.44879 16.4329 4.49421 19.166 4.49414ZM21.5156 27.4297H21.5166H21.5156ZM24.2217 26.5156H24.2227H24.2217ZM17.8125 25.5732C18.1073 25.6146 18.4063 25.6421 18.709 25.6562C18.4063 25.6421 18.1073 25.6146 17.8125 25.5732ZM16.0996 25.1699C16.3749 25.2621 16.6558 25.3418 16.9414 25.4092C16.6558 25.3418 16.3749 25.2621 16.0996 25.1699ZM11.2119 24.4326C11.24 24.4913 11.2744 24.5474 11.3145 24.6006C11.3544 24.6537 11.4004 24.7033 11.4521 24.749L11.4512 24.75C11.3477 24.6585 11.2681 24.5499 11.2119 24.4326ZM13.1006 23.5254H13.1016H13.1006ZM28.167 23.4189V23.4199V23.4189ZM12.3379 23.0264C12.4324 23.048 12.5248 23.0831 12.6113 23.1328L12.6953 23.1875C12.5855 23.1087 12.4638 23.0552 12.3379 23.0264ZM11.8623 23.0322L11.8613 23.0332L11.8623 23.0322ZM29.915 20.5391C29.8411 20.7137 29.7637 20.8865 29.6816 21.0566L29.4238 21.5596C29.6036 21.2288 29.7673 20.8881 29.915 20.5391ZM26.3203 9.50195C26.6326 9.84542 26.9199 10.2119 27.1807 10.5977C26.9199 10.2118 26.6325 9.84544 26.3203 9.50195ZM13.4385 8.21387C13.2095 8.38264 12.9884 8.56218 12.7754 8.75C12.5946 8.90972 12.3716 8.99252 12.1475 9L12.0518 8.99805C12.2113 9.00779 12.3731 8.97918 12.5225 8.91211C12.5523 8.89871 12.5816 8.8837 12.6104 8.86719C12.668 8.83405 12.7236 8.79476 12.7754 8.74902C12.9883 8.56126 13.2095 8.38258 13.4385 8.21387ZM27.8008 8.1582L27.7998 8.15723L27.8008 8.1582ZM15.291 7.14258C15.1592 7.20041 15.0291 7.26173 14.9004 7.3252L14.5195 7.52344C14.6449 7.45452 14.7717 7.38766 14.9004 7.32422L15.291 7.14258ZM11.8447 6.91895C11.7113 7.02667 11.5806 7.13759 11.4521 7.25098C11.4264 7.27375 11.4018 7.29754 11.3789 7.32227C11.4017 7.29766 11.4255 7.27364 11.4512 7.25098L11.8447 6.91895ZM16.0996 6.83105H16.1006H16.0996ZM24.2217 5.48535H24.2227H24.2217ZM21.5156 4.57129H21.5166H21.5156Z" fill="white" style="fill:white;fill-opacity:1;"/>
<path d="M18.6328 9.29297C19.0964 9.29297 19.4727 9.66918 19.4727 10.1328V15.1182L23.4932 19.1396C23.8005 19.446 23.8197 19.9337 23.5508 20.2627L23.4932 20.3262C23.1868 20.6336 22.6992 20.6528 22.3701 20.3838L22.3066 20.3262L18.0391 16.0596L17.9834 15.9971C17.8612 15.8485 17.793 15.6607 17.793 15.4658V10.1328C17.793 9.66929 18.1693 9.29314 18.6328 9.29297Z" fill="white" style="fill:white;fill-opacity:1;"/>
<path d="M11.166 10.4941L11.252 10.498C11.6753 10.5411 12.0059 10.8994 12.0059 11.334C12.0057 11.7975 11.6295 12.1738 11.166 12.1738H3.16602C2.70264 12.1737 2.32635 11.7974 2.32617 11.334C2.32617 10.8705 2.70253 10.4943 3.16602 10.4941H11.166Z" fill="white" style="fill:white;fill-opacity:1;"/>
<path d="M12.5 15.1602L12.5859 15.1641C13.009 15.2073 13.3397 15.5656 13.3398 16C13.3398 16.4635 12.9634 16.8396 12.5 16.8398H4.5C4.03637 16.8398 3.66016 16.4636 3.66016 16C3.66032 15.5365 4.03647 15.1602 4.5 15.1602H12.5Z" fill="white" style="fill:white;fill-opacity:1;"/>
<path d="M13.833 19.8262L13.9189 19.8301C14.3423 19.8732 14.6728 20.2314 14.6729 20.666C14.6729 21.1296 14.2966 21.5059 13.833 21.5059H5.83301C5.36943 21.5058 4.99316 21.1296 4.99316 20.666C4.99317 20.2024 5.36944 19.8262 5.83301 19.8262H13.833Z" fill="white" style="fill:white;fill-opacity:1;"/>
</svg>
