<svg width="33" height="32" viewBox="0 0 33 32" fill="none" xmlns="http://www.w3.org/2000/svg">
<path d="M21.094 3.28418C22.8126 1.69547 25.3462 1.30409 27.471 2.31934L27.5471 2.36133C27.8826 2.57663 27.962 3.03968 27.7171 3.35449L27.6595 3.41992L24.8753 6.20508L24.8929 6.29004L25.1292 7.37012L26.2083 7.60547L26.2932 7.62402L29.0784 4.83887L29.1438 4.78125C29.481 4.519 29.9893 4.62867 30.18 5.02734L30.2737 5.23438C31.1684 7.3143 30.7517 9.74127 29.2141 11.4053L29.0569 11.5693C27.5928 13.0333 25.4526 13.5872 23.4788 13.0498L23.3899 13.0254L20.2542 16.1602L20.3772 16.2734C20.8277 16.686 21.5861 17.2086 22.4378 17.0508C22.4417 17.0504 22.4447 17.0509 22.4456 17.0508C22.451 17.05 22.4569 17.0487 22.4612 17.0479L22.43 16.8916L22.4612 16.8828C22.5092 16.8754 22.5945 16.8707 22.6975 16.8838C22.6538 16.8783 22.6133 16.8758 22.5774 16.876C22.5858 16.9499 22.5401 16.9981 22.5335 17.0049C22.5187 17.0198 22.5039 17.0277 22.4993 17.0303C22.4884 17.0366 22.4787 17.0413 22.4768 17.042C22.4738 17.0431 22.4712 17.0436 22.47 17.0439C22.4651 17.0455 22.4692 17.0444 22.4846 17.042C22.5135 17.0375 22.5658 17.0321 22.6302 17.0361C22.7591 17.0444 22.9312 17.0881 23.0784 17.2354L30.2425 24.4004L30.3587 24.5293C30.8671 25.1525 30.8671 26.0506 30.3587 26.6738L30.2425 26.8037L27.303 29.7422C26.6821 30.3631 25.6954 30.4016 25.0286 29.8584L24.8997 29.7422L17.7346 22.5771C17.5731 22.4151 17.5056 22.182 17.5481 21.9639C17.5506 21.955 17.5536 21.9419 17.5569 21.9268C17.5637 21.8962 17.5718 21.853 17.5774 21.7988C17.5887 21.6901 17.5912 21.5358 17.5598 21.3467C17.5046 21.0141 17.3456 20.5789 16.9554 20.0908L16.7737 19.8779L16.6604 19.7549L13.5257 22.8896L13.5501 22.9795C14.0705 24.8917 13.5666 26.9595 12.2034 28.418L12.0686 28.5576C10.4035 30.2225 7.88416 30.6982 5.73465 29.7734L5.52762 29.6797C5.10289 29.4764 5.00687 28.9123 5.34012 28.5791L8.12527 25.7939L8.10574 25.709L7.87039 24.6289L7.7698 24.6074L6.70437 24.374L3.9202 27.1592C3.60776 27.4716 3.09222 27.4067 2.8616 27.0469L2.81961 26.9717C1.7717 24.7784 2.22229 22.1484 3.94168 20.4297L4.0823 20.2959C5.54041 18.9332 7.60734 18.4288 9.5198 18.9492L9.60965 18.9736L14.0589 14.5254L8.04617 8.5127L7.93289 8.625L7.13699 9.4209C6.86268 9.69508 6.42127 9.68372 6.16043 9.41113L6.10965 9.35254L3.52469 5.97168C3.31684 5.69955 3.34317 5.31548 3.58523 5.07324L5.57352 3.08496L5.6702 3.00293C5.90981 2.83854 6.23468 2.84225 6.47293 3.02441L9.85281 5.61035L9.91141 5.65918C10.166 5.90277 10.1932 6.30497 9.97293 6.58008L9.92117 6.63672L9.01199 7.5459L14.9124 13.4453L15.0257 13.5576L15.1389 13.4453L19.4739 9.10938L19.4495 9.01953C18.9122 7.04549 19.4661 4.90543 20.93 3.44141L21.094 3.28418ZM12.1272 28.7227C12.0243 28.823 11.9186 28.9191 11.8098 29.0107C11.8786 28.9528 11.9465 28.8934 12.013 28.832L12.1272 28.7227ZM25.6136 3.16992C24.3581 2.99185 23.0603 3.36564 22.0872 4.22949L21.8977 4.40918C20.6836 5.62337 20.2901 7.44632 20.8958 9.05371L20.9241 9.14844C20.9662 9.34142 20.9229 9.54365 20.805 9.70215L20.7395 9.77734L10.2776 20.2402C10.1116 20.406 9.87363 20.4738 9.64871 20.4248L9.55398 20.3965C8.0472 19.8286 6.35029 20.1375 5.14383 21.1787L4.90945 21.3975C3.91882 22.3877 3.48031 23.7741 3.6702 25.1133L3.71512 25.4307L6.00223 23.1436L6.06668 23.0859C6.22546 22.9629 6.43234 22.9156 6.63113 22.959L8.59012 23.3857L8.68484 23.4141C8.89961 23.4948 9.06264 23.6798 9.11258 23.9082L9.54031 25.8662L9.55398 25.9521C9.56926 26.1238 9.5188 26.2955 9.41336 26.4316L9.35574 26.4961L7.06863 28.7842L7.38602 28.8291C8.72524 29.0189 10.1112 28.5804 11.1018 27.5898L11.3196 27.3555C12.2917 26.2293 12.6267 24.6762 12.2054 23.249L12.1028 22.9463C12.0082 22.6952 12.0696 22.4116 12.2591 22.2217L22.721 11.7598L22.7971 11.6943C22.9819 11.557 23.2259 11.5209 23.4456 11.6035L23.7503 11.7051C25.2791 12.1562 26.952 11.7396 28.0901 10.6016L28.2688 10.4111C29.1324 9.43777 29.5062 8.14097 29.3284 6.88574L29.2835 6.56836L26.9964 8.85547C26.8522 8.99953 26.6525 9.07145 26.4524 9.05371L26.3675 9.04004L24.4075 8.6123C24.1792 8.56229 23.995 8.39925 23.9143 8.18457L23.886 8.08887L23.4583 6.13086C23.4088 5.9036 23.4794 5.66646 23.6438 5.50195L25.93 3.21484L25.6136 3.16992ZM22.4807 18.7988L19.2991 21.9814L19.1858 22.0938L25.8675 28.7754L25.9182 28.8174C26.0471 28.9026 26.2229 28.8886 26.3362 28.7754L29.2747 25.8359L29.3177 25.7842C29.3904 25.6738 29.3905 25.5292 29.3177 25.4189L29.2747 25.3662L22.594 18.6865L22.4807 18.7988ZM8.10867 28.71C8.07093 28.7109 8.03318 28.71 7.99539 28.71C8.03318 28.71 8.07093 28.7109 8.10867 28.71ZM26.093 28.71C26.081 28.7094 26.0697 28.7062 26.0579 28.7031C26.0697 28.7063 26.0809 28.7094 26.093 28.71ZM7.87723 28.71C7.80525 28.7079 7.73335 28.7031 7.66141 28.6973C7.73335 28.7031 7.80525 28.7079 7.87723 28.71ZM26.1555 28.7012C26.143 28.7054 26.1305 28.7068 26.1175 28.708C26.1305 28.7068 26.143 28.7054 26.1555 28.7012ZM8.345 28.6973C8.30567 28.7005 8.26626 28.702 8.22684 28.7041C8.26626 28.702 8.30567 28.7005 8.345 28.6973ZM25.9798 28.6621C25.9953 28.6776 26.0136 28.6889 26.0325 28.6973C26.0313 28.6967 26.0298 28.6968 26.0286 28.6963L25.9798 28.6621ZM7.40848 28.6709C7.48892 28.6823 7.56998 28.6896 7.65066 28.6963C7.5699 28.6896 7.489 28.6823 7.40848 28.6709ZM26.1956 28.6836C26.1903 28.6871 26.1836 28.6876 26.178 28.6904C26.1936 28.6825 26.2099 28.6751 26.2229 28.6621L26.1956 28.6836ZM8.56863 28.6719C8.53873 28.6759 8.50878 28.6792 8.47879 28.6826C8.50878 28.6792 8.53873 28.6759 8.56863 28.6719ZM8.8157 28.6318C8.7732 28.6402 8.73051 28.6473 8.68777 28.6543C8.73051 28.6473 8.7732 28.6402 8.8157 28.6318ZM9.02176 28.5859C8.99385 28.5929 8.96581 28.5991 8.93777 28.6055C8.96581 28.5991 8.99385 28.5929 9.02176 28.5859ZM9.26199 28.5186C9.22893 28.5289 9.19567 28.5384 9.16238 28.5479C9.19567 28.5384 9.22893 28.5289 9.26199 28.5186ZM9.49441 28.4385C9.45458 28.4535 9.41452 28.4677 9.3743 28.4814C9.41452 28.4677 9.45458 28.4535 9.49441 28.4385ZM9.71707 28.3467C9.67357 28.366 9.63027 28.3855 9.58621 28.4033C9.63027 28.3855 9.67356 28.366 9.71707 28.3467ZM9.92215 28.249C9.88578 28.2676 9.8496 28.2863 9.81277 28.3037C9.8496 28.2863 9.88578 28.2676 9.92215 28.249ZM10.1272 28.1377C10.0929 28.1577 10.0585 28.1773 10.0237 28.1963C10.0585 28.1773 10.0929 28.1577 10.1272 28.1377ZM10.3509 27.998C10.3119 28.0241 10.2733 28.0505 10.2337 28.0752C10.2733 28.0505 10.3119 28.0241 10.3509 27.998ZM10.5276 27.8721C10.4927 27.8981 10.4587 27.9253 10.4231 27.9502C10.4587 27.9253 10.4927 27.8981 10.5276 27.8721ZM13.3138 27.082C13.2191 27.2767 13.1108 27.4651 12.9944 27.6494C13.1108 27.4651 13.2191 27.2767 13.3138 27.082ZM11.3802 27.0244C11.2654 27.1776 11.1392 27.3236 11.0022 27.4619C11.1392 27.3236 11.2654 27.1776 11.3802 27.0244ZM11.5462 26.7842C11.513 26.8356 11.4773 26.8854 11.4417 26.9355C11.4773 26.8854 11.5129 26.8356 11.5462 26.7842ZM11.6966 26.5322C11.6703 26.58 11.6427 26.627 11.6145 26.6738C11.6427 26.627 11.6703 26.58 11.6966 26.5322ZM11.8245 26.2793C11.8063 26.3183 11.7873 26.357 11.7679 26.3955C11.7873 26.357 11.8063 26.3183 11.8245 26.2793ZM11.9475 25.9902C11.9278 26.0422 11.9058 26.0933 11.8841 26.1445C11.9058 26.0933 11.9278 26.0422 11.9475 25.9902ZM30.8919 25.4238C30.9032 25.5423 30.9033 25.6618 30.8919 25.7803C30.9033 25.6618 30.9032 25.5423 30.8919 25.4238ZM9.26883 23.874L9.69754 25.833H9.69656L9.26883 23.874ZM12.0354 25.7334C12.0217 25.778 12.0067 25.8221 11.9915 25.8662C12.0067 25.8221 12.0217 25.778 12.0354 25.7334ZM29.1975 25.668C29.1915 25.6822 29.1822 25.6945 29.1721 25.707C29.1823 25.6945 29.1915 25.6822 29.1975 25.668ZM29.2102 25.6094C29.2095 25.6242 29.206 25.6381 29.2014 25.6523C29.206 25.6381 29.2095 25.6242 29.2102 25.6094ZM12.1096 25.457C12.099 25.5025 12.0876 25.5477 12.0755 25.5928C12.0876 25.5477 12.099 25.5025 12.1096 25.457ZM29.2014 25.5469C29.2057 25.5594 29.207 25.5719 29.2083 25.585C29.207 25.5719 29.2057 25.5594 29.2014 25.5469ZM29.1839 25.5068C29.1875 25.5123 29.1888 25.5196 29.1917 25.5254C29.1844 25.511 29.1769 25.4967 29.1653 25.4844L29.1839 25.5068ZM12.1692 25.1562C12.1609 25.2082 12.1511 25.2599 12.1409 25.3115C12.1511 25.2599 12.1609 25.2082 12.1692 25.1562ZM3.78836 24.6211C3.79291 24.7775 3.80633 24.934 3.8284 25.0898V25.0908C3.80625 24.9347 3.79291 24.7778 3.78836 24.6211ZM12.2054 24.8623C12.2006 24.9155 12.1955 24.9686 12.1888 25.0215C12.1955 24.9686 12.2006 24.9155 12.2054 24.8623ZM12.221 24.5781C12.2198 24.6313 12.2182 24.6843 12.2151 24.7373C12.2183 24.6843 12.2198 24.6313 12.221 24.5781ZM3.78836 24.4902C3.78843 24.456 3.78844 24.4219 3.78934 24.3877C3.78844 24.4219 3.78842 24.456 3.78836 24.4902ZM12.2171 24.2871C12.2196 24.3402 12.2214 24.3932 12.222 24.4463C12.2214 24.3932 12.2196 24.3402 12.2171 24.2871ZM3.79422 24.2715C3.79634 24.2321 3.79784 24.1926 3.80105 24.1533C3.79784 24.1926 3.79633 24.2321 3.79422 24.2715ZM12.1888 23.9561C12.1971 24.0218 12.205 24.0875 12.2102 24.1533C12.205 24.0875 12.1971 24.0218 12.1888 23.9561ZM3.8157 24.0195C3.81993 23.9824 3.82416 23.9452 3.82937 23.9082C3.82417 23.9452 3.81993 23.9824 3.8157 24.0195ZM12.1575 23.7559C12.1639 23.7924 12.1716 23.8286 12.177 23.8652C12.1716 23.8286 12.1639 23.7924 12.1575 23.7559ZM3.84402 23.8105C3.8516 23.7645 3.86032 23.7186 3.86941 23.6729C3.86032 23.7186 3.8516 23.7645 3.84402 23.8105ZM3.89676 23.5459C3.90361 23.5162 3.91075 23.4866 3.91824 23.457C3.91075 23.4866 3.9036 23.5162 3.89676 23.5459ZM3.95047 23.3359C3.96064 23.3003 3.97159 23.2649 3.9827 23.2295C3.97159 23.2649 3.96063 23.3003 3.95047 23.3359ZM6.66531 22.8027H6.66629H6.66531ZM4.01687 23.124C4.0308 23.0834 4.04565 23.0431 4.06082 23.0029C4.04566 23.0431 4.03079 23.0834 4.01687 23.124ZM4.10086 22.8994C4.11676 22.8604 4.13358 22.8218 4.15066 22.7832C4.13359 22.8218 4.11675 22.8604 4.10086 22.8994ZM4.19852 22.6768C4.21847 22.6349 4.24062 22.594 4.26199 22.5527C4.24062 22.594 4.21847 22.6349 4.19852 22.6768ZM4.30691 22.4678C4.32341 22.4376 4.34043 22.4077 4.3577 22.3779C4.34043 22.4077 4.32341 22.4376 4.30691 22.4678ZM4.42312 22.2666C4.44135 22.2373 4.46078 22.2086 4.47977 22.1797C4.46078 22.2086 4.44135 22.2373 4.42312 22.2666ZM4.55496 22.0654C4.58326 22.0252 4.61401 21.9866 4.64383 21.9473C4.61401 21.9866 4.58326 22.0252 4.55496 22.0654ZM17.6263 18.7881L17.7317 18.9014C18.067 19.2607 18.4434 19.7542 18.6878 20.3457L18.7786 20.5674L21.0667 18.2793L20.845 18.1875C20.2536 17.9431 19.7611 17.5668 19.4016 17.2314L19.2893 17.126L17.6263 18.7881ZM16.9768 20.3877V20.3867V20.3877ZM20.8528 9.89062L10.3919 20.3525C10.3626 20.3818 10.3307 20.4084 10.2981 20.4326L10.3909 20.3525L20.8528 9.89062ZM7.41238 20.3184C7.31346 20.3325 7.21509 20.35 7.11746 20.3711V20.3701C7.21471 20.3491 7.31287 20.3325 7.41141 20.3184H7.41238ZM8.9075 20.3711L8.90848 20.3721L8.9075 20.3711ZM4.40848 19.8096C4.23375 19.9436 4.06722 20.0901 3.90652 20.2451C4.06723 20.0901 4.23373 19.9436 4.40848 19.8096ZM17.8489 18.792C17.9347 18.884 18.0229 18.9857 18.1116 19.0947C18.0228 18.9855 17.9338 18.8841 17.8479 18.792L18.8977 17.7432L17.8489 18.792ZM9.56277 18.7949V18.7959V18.7949ZM19.2932 17.3486C19.4314 17.4775 19.5891 17.613 19.7649 17.7451H19.7639C19.7055 17.7012 19.6494 17.6566 19.595 17.6123C19.4859 17.5235 19.3853 17.4345 19.2932 17.3486ZM23.1096 17.0508C23.1135 17.0538 23.1175 17.0565 23.1214 17.0596L23.1907 17.1221C23.1643 17.0957 23.1371 17.072 23.1096 17.0508ZM22.2679 16.9131C22.2259 16.9169 22.1843 16.9194 22.1429 16.9199C22.1843 16.9194 22.2259 16.9169 22.2679 16.9131ZM21.7356 16.874C21.8624 16.9036 21.9928 16.9201 22.1262 16.9199C21.9927 16.9201 21.8624 16.9036 21.7356 16.874ZM21.6917 16.8633C21.6618 16.8555 21.6322 16.847 21.6028 16.8379C21.6322 16.847 21.6618 16.8555 21.6917 16.8633ZM21.5667 16.8262C21.5394 16.8172 21.5124 16.8079 21.4856 16.7979C21.5124 16.8079 21.5394 16.8172 21.5667 16.8262ZM21.3001 16.7178C21.2609 16.6991 21.2228 16.6786 21.1848 16.6582C21.2228 16.6786 21.2609 16.6991 21.3001 16.7178ZM21.0618 16.5908C21.0208 16.5661 20.9819 16.5389 20.9427 16.5127C20.9819 16.5388 21.0208 16.5661 21.0618 16.5908ZM20.8577 16.457C20.8114 16.424 20.7672 16.3894 20.7239 16.3555C20.7672 16.3894 20.8113 16.4241 20.8577 16.457ZM23.4378 13.2041C23.6187 13.2533 23.8016 13.2898 23.9846 13.3213C23.8016 13.2898 23.6187 13.2533 23.4378 13.2041ZM24.9475 11.7217C24.8902 11.7211 24.833 11.7187 24.7757 11.7158C24.833 11.7187 24.8902 11.7211 24.9475 11.7217ZM25.2405 11.7139C25.1826 11.7173 25.1247 11.7196 25.0667 11.7207C25.1247 11.7196 25.1826 11.7173 25.2405 11.7139ZM24.6555 11.709C24.605 11.705 24.5547 11.6992 24.5042 11.6934C24.5547 11.6992 24.605 11.705 24.6555 11.709ZM25.5266 11.6865C25.4737 11.6933 25.4207 11.6993 25.3675 11.7041C25.4207 11.6993 25.4737 11.6933 25.5266 11.6865ZM24.3567 11.6748C24.295 11.6655 24.2336 11.6537 24.1721 11.6416C24.2336 11.6537 24.295 11.6655 24.3567 11.6748ZM25.8186 11.6387C25.7622 11.65 25.7056 11.66 25.6487 11.6689C25.7056 11.66 25.7622 11.65 25.8186 11.6387ZM24.0794 11.624C24.0162 11.6101 23.9537 11.5931 23.8909 11.5762C23.9537 11.5931 24.0162 11.6101 24.0794 11.624ZM22.803 11.501C22.7444 11.5327 22.6905 11.5733 22.6399 11.6191C22.6905 11.5733 22.7444 11.5327 22.803 11.501ZM26.1067 11.5703C26.0503 11.5857 25.9938 11.6002 25.9368 11.6133C25.9938 11.6002 26.0503 11.5857 26.1067 11.5703ZM26.3762 11.4873C26.3222 11.506 26.2679 11.5235 26.2132 11.54C26.2679 11.5235 26.3222 11.506 26.3762 11.4873ZM26.6604 11.377C26.6058 11.4004 26.5509 11.4232 26.4954 11.4443C26.5509 11.4232 26.6058 11.4004 26.6604 11.377ZM26.9065 11.2607C26.8575 11.2856 26.8089 11.3111 26.7591 11.334C26.8089 11.3111 26.8575 11.2856 26.9065 11.2607ZM27.1721 11.1143C27.1252 11.1425 27.0784 11.1709 27.0305 11.1973C27.0784 11.1709 27.1252 11.1425 27.1721 11.1143ZM27.4407 10.9385C27.386 10.9774 27.331 11.0156 27.2747 11.0518C27.331 11.0156 27.386 10.9774 27.4407 10.9385ZM27.6897 10.7471C27.6338 10.7936 27.5778 10.8395 27.5198 10.8828C27.5777 10.8395 27.6338 10.7936 27.6897 10.7471ZM3.39871 6.06934H3.39773H3.39871ZM21.0462 8.99707C21.0112 8.90435 20.9795 8.81084 20.9514 8.7168C20.9795 8.81073 21.0113 8.90446 21.0462 8.99707ZM20.9163 8.58105C20.9018 8.5257 20.8865 8.4707 20.8743 8.41504C20.8865 8.4707 20.9017 8.5257 20.9163 8.58105ZM20.8518 8.2959C20.8419 8.24342 20.8305 8.19132 20.8225 8.13867C20.8305 8.19132 20.8419 8.24342 20.8518 8.2959ZM20.8001 7.94434C20.7963 7.90785 20.7921 7.87147 20.7893 7.83496C20.7921 7.87147 20.7963 7.90785 20.8001 7.94434ZM4.97488 5.61621L5.05984 5.72852L6.72293 7.90137L8.27273 6.35059L8.40262 6.22168L6.22879 4.55957L6.11746 4.47461L4.97488 5.61621ZM20.7825 7.72363C20.7796 7.66565 20.7772 7.60774 20.7766 7.5498C20.7772 7.60774 20.7796 7.66565 20.7825 7.72363ZM20.7776 7.43066C20.7787 7.37295 20.781 7.31535 20.7845 7.25781C20.781 7.31535 20.7787 7.37295 20.7776 7.43066ZM20.7942 7.13184C20.7991 7.07765 20.8049 7.02364 20.8118 6.96973C20.8049 7.02364 20.7991 7.07765 20.7942 7.13184ZM20.8294 6.84961C20.8385 6.7918 20.8481 6.73413 20.8596 6.67676C20.8481 6.73413 20.8385 6.7918 20.8294 6.84961ZM10.1956 6.52539C10.1691 6.57924 10.1368 6.63117 10.0979 6.67969L10.0345 6.75C10.0795 6.70491 10.118 6.65594 10.1507 6.60449L10.1956 6.52539ZM20.886 6.55664C20.8966 6.51085 20.9081 6.46534 20.9202 6.41992C20.9081 6.46534 20.8966 6.51085 20.886 6.55664ZM20.9671 6.25586C20.9789 6.2176 20.9912 6.17953 21.0042 6.1416C20.9912 6.17953 20.9789 6.2176 20.9671 6.25586ZM21.054 6.00098C21.0762 5.94264 21.1014 5.88551 21.1262 5.82812C21.1014 5.88551 21.0762 5.94264 21.054 6.00098ZM21.1673 5.73145C21.1931 5.67559 21.222 5.6212 21.2503 5.56641C21.222 5.6212 21.1931 5.67559 21.1673 5.73145ZM9.95047 5.4834V5.48242V5.4834ZM21.3011 5.46582C21.3273 5.4182 21.3559 5.37189 21.3841 5.3252C21.3559 5.37189 21.3273 5.4182 21.3011 5.46582ZM21.4466 5.22266C21.4892 5.15624 21.5348 5.09156 21.5813 5.02734C21.5348 5.09157 21.4892 5.15624 21.4466 5.22266ZM21.8011 4.74805C21.7363 4.82303 21.6743 4.89978 21.6155 4.97852C21.6743 4.89978 21.7363 4.82303 21.8011 4.74805ZM5.71219 2.79785C5.66624 2.81843 5.62166 2.84298 5.57937 2.87207C5.53732 2.90096 5.49746 2.93445 5.46023 2.97168L4.41141 4.02051L5.46023 2.9707C5.53511 2.89583 5.62124 2.83788 5.71316 2.79688L5.71219 2.79785ZM28.0179 2.89062C28.0197 2.9231 28.0208 2.95571 28.0188 2.98828L28.0071 3.08594C28.0186 3.02125 28.0215 2.95565 28.0179 2.89062ZM6.00125 2.72559C6.10038 2.719 6.20062 2.73019 6.29715 2.75879L6.43777 2.81445C6.30077 2.74509 6.14959 2.71583 6.00125 2.72559ZM27.5393 2.1748H27.5403H27.5393ZM25.5462 1.625C25.5592 1.62621 25.5722 1.62761 25.5852 1.62891C25.5722 1.62761 25.5592 1.62621 25.5462 1.625ZM11.5071 29.25C11.4594 29.2851 11.4102 29.318 11.3616 29.3516C11.4102 29.318 11.4594 29.2851 11.5071 29.25ZM11.3157 29.3828C11.2666 29.4161 11.2173 29.4488 11.1673 29.4805C11.2172 29.4488 11.2666 29.4161 11.3157 29.3828ZM10.7141 27.7246C10.6813 27.7521 10.6491 27.7802 10.6155 27.8066C10.6491 27.7802 10.6813 27.7521 10.7141 27.7246ZM23.0325 16.9971C23.0585 17.0129 23.0841 17.0309 23.1096 17.0508C23.0841 17.031 23.0585 17.0128 23.0325 16.9971Z" fill="white" style="fill:white;fill-opacity:1;"/>
</svg>
