<svg width="32" height="32" viewBox="0 0 32 32" fill="none" xmlns="http://www.w3.org/2000/svg">
<path d="M6.18641 21.0202H5.61752C3.12863 21.0202 1.06641 19.0291 1.06641 16.5331V5.55352C1.06641 3.06463 3.12863 1.06641 5.62463 1.06641H16.6966C19.1926 1.06641 21.2549 3.06463 21.2549 5.55352V5.95174C24.4477 5.95174 26.3464 7.6513 26.3464 10.9722C28.8709 10.9722 30.9331 12.9349 30.9331 15.4593V26.4033C30.9331 28.8993 28.9064 30.926 26.4104 30.926H15.2317C12.7713 30.926 10.7446 28.8993 10.7446 26.4033V25.87C8.14907 25.6353 6.18641 24.1704 6.18641 21.4113V21.0202ZM24.6469 10.9793V10.446C24.6469 8.88152 23.3526 7.6513 21.8166 7.6513H10.7091C9.14463 7.6513 7.85041 8.88152 7.85041 10.446V21.4184C7.85041 23.2175 9.08063 24.014 10.7446 24.1775V15.4664C10.7446 13.006 12.7713 10.9793 15.2317 10.9793H24.6469ZM26.4104 12.6433H15.2317C13.7029 12.6433 12.4371 13.9091 12.4371 15.4735V26.4175C12.4371 27.982 13.7029 29.2477 15.2317 29.2477H26.4033C27.9677 29.2477 29.2335 27.982 29.2335 26.4175V15.4664C29.2335 13.902 27.9749 12.6433 26.4104 12.6433ZM19.5553 5.95885V5.56063C19.5553 3.99618 18.2611 2.76596 16.6966 2.76596H5.62463C4.06018 2.76596 2.76596 3.99618 2.76596 5.56063V16.5331C2.76596 18.0975 4.06018 19.3277 5.62463 19.3277H6.19352V10.446C6.19352 7.94996 8.25574 5.95885 10.7162 5.95885H19.5553Z" fill="white" style="fill:white;fill-opacity:1;"/>
</svg>
